<?xml version="1.0" encoding="utf-8"?>
<!-- Generator: Adobe Illustrator 23.0.3, SVG Export Plug-In . SVG Version: 6.00 Build 0)  -->
<svg version="1.1" id="Layer_1" xmlns="http://www.w3.org/2000/svg" xmlns:xlink="http://www.w3.org/1999/xlink" x="0px" y="0px"
	 viewBox="0 0 500 500" style="enable-background:new 0 0 500 500;" xml:space="preserve">
<style type="text/css">
	.st0{fill:#F0F0F0;}
	.st1{fill:#FAFAFA;}
	.st2{fill:#EBEBEB;}
	.st3{fill:#E0E0E0;}
	.st4{opacity:0.2;fill:#EE324B;enable-background:new    ;}
	.st5{fill:#EE324B;}
	.st6{opacity:0.2;enable-background:new    ;}
	.st7{fill:#37474F;}
	.st8{fill:#455A64;}
	.st9{fill:#263238;}
	.st10{opacity:0.1;enable-background:new    ;}
	.st11{fill:#DD9098;}
	.st12{fill:#BA656B;}
	.st13{fill:#7F4741;}
	.st14{fill:#AD6069;}
	.st15{fill:#F28F8F;}
	.st16{opacity:0.7;fill:#FFFFFF;enable-background:new    ;}
	.st17{opacity:0.3;fill:#EE324B;enable-background:new    ;}
	.st18{fill:#FFA8A7;}
	.st19{fill:#B16668;}
	.st20{opacity:0.55;fill:#FFFFFF;enable-background:new    ;}
	.st21{opacity:0.25;fill:#EE324B;enable-background:new    ;}
	.st22{opacity:0.35;fill:#FFFFFF;enable-background:new    ;}
	.st23{fill:#FFFFFF;}
</style>
<g id="freepik--Document--inject-63">
	<g id="freepik--Contract--inject-63">
		<g id="freepik--Sheet--inject-63">
			<polygon class="st0" points="283.2,485.3 283.1,490.3 479.7,376.8 479.7,371.8 			"/>
			<polygon class="st1" points="479.7,371.8 218.3,220.8 21.6,334.4 283.2,485.3 			"/>
			<path class="st2" d="M218.3,222l259.4,149.8L283.2,484L23.7,334.3L218.3,222 M218.3,220.8L21.6,334.3l261.6,150.9l196.6-113.5
				L218.3,220.8L218.3,220.8z"/>
			<polygon class="st3" points="283.2,485.3 21.6,334.4 21.6,339.3 283.1,490.3 283.2,485.4 			"/>
			<g id="freepik--Text--inject-63">
				<path class="st3" d="M103.6,308.4l-46.9,27.1c-1.2,0.7-1.2,1.7-0.1,2.4c1.3,0.6,2.8,0.6,4.1-0.1l46.9-27.1
					c1.2-0.7,1.2-1.7,0.1-2.3C106.3,307.7,104.8,307.7,103.6,308.4z"/>
				<path class="st3" d="M119.3,317.4l-46.9,27.1c-1.2,0.7-1.2,1.7-0.1,2.4c1.3,0.6,2.8,0.6,4.1-0.1l46.9-27.1
					c1.2-0.7,1.2-1.7,0.1-2.3C122.1,316.7,120.6,316.8,119.3,317.4z"/>
				<path class="st3" d="M93.9,323l-29.4,17c-1.2,0.7-1.2,1.7-0.1,2.3c1.3,0.6,2.8,0.6,4.1-0.1l29.4-17c1.2-0.7,1.2-1.7,0.1-2.3
					C96.6,322.3,95.1,322.3,93.9,323z"/>
			</g>
			<g id="freepik--text--inject-63">
				<path class="st3" d="M256.7,268.6l-153.3,88.5c-1.2,0.7-1.2,1.7-0.1,2.4c1.3,0.6,2.8,0.6,4.1-0.1l153.3-88.5
					c1.2-0.7,1.2-1.7,0.1-2.3C259.5,267.9,258,267.9,256.7,268.6z"/>
				<path class="st3" d="M264.6,273.1l-153.3,88.5c-1.2,0.7-1.2,1.7-0.1,2.3c1.3,0.6,2.8,0.6,4.1-0.1l153.3-88.5
					c1.2-0.7,1.2-1.7,0.1-2.3C267.3,272.4,265.8,272.4,264.6,273.1z"/>
				<path class="st3" d="M272.4,277.6l-153.3,88.5c-1.2,0.7-1.2,1.7-0.1,2.3c1.3,0.6,2.8,0.6,4.1-0.1l153.3-88.5
					c1.1-0.7,1.2-1.7,0.1-2.3C275.2,276.9,273.7,277,272.4,277.6z"/>
				<path class="st3" d="M280.3,282.2L127,370.7c-1.2,0.7-1.2,1.7-0.1,2.4c1.3,0.6,2.8,0.6,4.1-0.1l153.3-88.5
					c1.2-0.7,1.2-1.7,0.1-2.3C283.1,281.5,281.6,281.5,280.3,282.2z"/>
			</g>
			<g>
				<path class="st3" d="M296.2,291.4l-153.3,88.5c-1.2,0.7-1.2,1.7-0.1,2.4c1.3,0.6,2.8,0.6,4.1-0.1l153.3-88.5
					c1.2-0.7,1.2-1.7,0.1-2.4C298.9,290.6,297.4,290.7,296.2,291.4z"/>
				<path class="st3" d="M304,295.9l-153.3,88.5c-1.2,0.7-1.2,1.7-0.1,2.4c1.3,0.6,2.8,0.6,4.1-0.1L308,298.2
					c1.2-0.7,1.2-1.7,0.1-2.4C306.8,295.2,305.3,295.2,304,295.9z"/>
				<path class="st3" d="M311.9,300.4L158.6,389c-1.1,0.7-1.2,1.7-0.1,2.4c1.3,0.6,2.8,0.6,4.1-0.1l153.3-88.6
					c1.2-0.7,1.2-1.7,0.2-2.4C314.7,299.7,313.2,299.7,311.9,300.4z"/>
				<path class="st3" d="M319.8,305l-153.3,88.5c-1.2,0.7-1.2,1.7-0.1,2.4c1.3,0.6,2.8,0.6,4.1-0.1l153.3-88.5
					c1.2-0.7,1.2-1.7,0.1-2.4C322.5,304.3,321,304.3,319.8,305z"/>
			</g>
			<path class="st3" d="M335.6,314.1l-153.3,88.5c-1.2,0.7-1.2,1.7-0.1,2.3c1.3,0.6,2.8,0.6,4.1-0.1l153.3-88.5
				c1.2-0.7,1.2-1.7,0.1-2.3C338.4,313.4,336.9,313.5,335.6,314.1z"/>
			<path class="st3" d="M343.5,318.7l-153.3,88.5c-1.1,0.7-1.2,1.7-0.1,2.3c1.3,0.6,2.8,0.6,4.1-0.1l153.3-88.5
				c1.2-0.7,1.2-1.7,0.1-2.3C346.3,318,344.8,318,343.5,318.7z"/>
			<path class="st3" d="M280.3,364.2l-82.2,47.4c-1.1,0.7-1.2,1.7-0.1,2.4c1.3,0.6,2.8,0.6,4.1-0.1l82.2-47.4
				c1.2-0.7,1.2-1.7,0.1-2.3C283.1,363.5,281.6,363.6,280.3,364.2z"/>
			<path class="st3" d="M267.9,450.2l69.8-40.2c0.7-0.4,0.8-1.1,0.1-1.5c-0.8-0.4-1.8-0.4-2.6,0l-69.8,40.3
				c-0.8,0.4-0.8,1.1-0.1,1.5C266.1,450.7,267.1,450.7,267.9,450.2z"/>
			<path class="st3" d="M262.8,447.3l52.9-30.5c0.7-0.4,0.8-1.1,0.1-1.5c-0.8-0.4-1.8-0.4-2.6,0l-52.9,30.5
				c-0.8,0.4-0.8,1.1-0.1,1.5C261,447.8,262,447.7,262.8,447.3z"/>
			<path class="st3" d="M354.4,400.3l69.8-40.3c0.8-0.4,0.8-1.1,0.1-1.5c-0.8-0.4-1.8-0.4-2.6,0l-69.8,40.3
				c-0.7,0.4-0.8,1.1-0.1,1.5C352.6,400.7,353.6,400.7,354.4,400.3z"/>
			<path class="st3" d="M349.4,397.4l52.9-30.5c0.8-0.4,0.8-1.1,0.1-1.5c-0.8-0.4-1.8-0.4-2.6,0l-52.9,30.5
				c-0.7,0.4-0.8,1.1-0.1,1.5C347.6,397.8,348.5,397.8,349.4,397.4z"/>
		</g>
		<path class="st3" d="M328.2,404.3c-5.6,0.8-11,2.5-16.1,5c-0.4-0.3-0.7-0.5-1-0.8c-2.5-2.1-4.6-4.5-6.3-7.2
			c-0.1-0.3-0.1-0.6-0.2-0.9l-1.1-5.9c0-1-0.3-1.9-0.7-2.8c-0.5-0.7-1.5-1-2.3-0.8c-0.2,0-0.5,0.1-0.5,0.3c0.4,3.7,1.7,7.3,3.7,10.4
			v0.2c0.2,1,0.4,1.9,0.6,2.9c0.3,0.8,0.4,1.7,0.2,2.5c-0.6,1-1.7,1.5-2.9,1.4c-1.2,0.1-2.4-0.4-3-1.5c-0.1-0.3-1.2-0.3-1.1,0
			c0.2,0.6,0.4,1.1,0.6,1.7l-3.2-1.8c-0.3-0.2-1.2-0.1-1,0.3c1.1,1.7,1.5,3.8,1.1,5.8c-2.4-2.1-4.6-4.5-6.4-7.1
			c-0.2-0.3-1.3-0.2-1.2,0.1c0.7,3,1.4,6.1,2.1,9.1c0.4,1.5,0.7,3,1,4.5c0.2,0.7,0.4,1.4,0.5,2.1l-1.4,0.9c-0.9-0.7-1.8-1.5-2.6-2.3
			c0.2-1.1,0.2-2.3,0-3.4c-0.1-3.4-1-6.7-2.7-9.7c-0.5-0.8-1-1.5-1.5-2.1c-0.6-0.8-1.3-1.5-2.1-2.1c-0.8-0.5-1.7-0.5-2.5-0.2
			c-0.6,0.3-1,0.9-1,1.6c0.1,1.7,0.5,3.3,1.1,4.8c0.6,1.7,1.4,3.3,2.3,4.8c1.5,2.4,3.3,4.6,5.3,6.5c-0.2,1.1-1.1,1.9-2.2,2L282,422
			c-0.3-0.1-1-0.1-1,0.2c-0.2,0.6-0.2,1.2-0.2,1.8l-3.3-0.6c-0.3,0-0.8,0.1-0.8,0.3l-0.4,2.9c0,0.2,0.1,1.4-0.4,1.5
			s-1.3-0.5-1.6-0.6s-0.5-0.3-0.8-0.5c-0.2-1.7-1.1-3.2-2.4-4.2c-0.3-0.3-1.2-0.1-1.2,0.2c0,1.1,0.4,2.2,1.1,3c0.3,0.4,0.6,0.7,1,1
			c0.1,1.8-0.6,3.6-2,4.8c-0.8,0.9-2,1.5-3.3,1.5c-0.3,0-0.6-0.1-0.9-0.1c2.4-3.1,2.8-6.8,0.7-10c-0.4-0.6-0.9-1.2-1.4-1.7
			c-0.3-0.2-0.7-0.2-1-0.1c-2.7,1.2-4,3.2-4.1,5.1c0.1,2.2,1.1,4.3,2.7,5.8c0.5,0.5,1,0.9,1.6,1.2c-0.4,0.5-0.9,0.9-1.3,1.4
			c-1.2,1-2.5,1.9-4,2.6c-1.7,0.9-3.5,1.3-5.4,1.3c-2.4-0.2-3.6-2-4.5-3.1c-0.6-0.8-1-1.6-1.3-2.5c6.2-2.3,10.9-5.9,13-10
			c1.3-2.4,2-5.3,0.9-7.8c-0.8-1.6-2.5-2.7-4.3-2.8c-1.9-0.2-3.7,0.2-5.4,1.1c-1.4,0.8-2.6,1.9-3.5,3.3c-0.9,1.4-1.6,2.9-1.9,4.5
			c-0.8,2.9-1.1,5.9-0.9,8.9c0.1,0.9,0.3,1.8,0.6,2.7l-0.8,0.3c-0.9,0.3-1.8,0.5-2.7,0.8c-0.5,0.1,0.2,0.4,0.5,0.3
			c1.1-0.3,2.1-0.6,3.1-0.9c0.1,0.3,0.3,0.6,0.4,0.9c0.7,1.6,1.9,2.9,3.3,3.9c3.3,2.3,8.4,0.3,11.2-1.3c1.5-0.8,2.8-1.9,4-3.2h0.1
			c1.4,0.3,2.8,0.1,4-0.5c1.9-0.9,3.4-2.7,3.9-4.8c0-0.2,0.1-0.4,0.1-0.6c0.3,0.2,0.7,0.3,1,0.4c1.3,0.4,2.6,0.2,2.9-0.7
			c0.2-1.2,0.4-2.4,0.5-3.6l3.4,0.6c0.4,0.1,0.9-0.1,0.8-0.3c-0.1-0.5-0.1-1,0-1.5c0.3,0.1,0.5,0.3,0.8,0.3c0.5,0.1,1,0.1,1.4-0.1
			c0.8-0.2,1.6-0.6,2.1-1.3c0.1-0.1,0.1-0.2,0.2-0.3c0.7,0.6,1.4,1.2,2.2,1.8c-7.2,4.9-14.2,10.3-20.8,16c-4.6,4.1-9.1,8.4-13.2,13
			c-0.3,0.4,0.8,0.5,1.1,0.2c7.5-7.9,15.6-15.1,24.3-21.6c3-2.3,6.2-4.6,9.4-6.8h0.1c0.3,0.2,0.7,0.2,1,0c0.9-0.2,1.5-1,1.6-1.9
			c5.4-3.6,11.1-7.1,17.1-10.5c0.9-0.5,1.9-1,2.9-1.5c0.7,0.3,1.5,0.6,2.3,0.6c1.6,0.1,3.2-0.2,4.6-0.7c3.6-1.1,7-3,9.9-5.5
			C329.1,404.5,328.6,404.2,328.2,404.3z M247.4,431.7c-0.5-2.6-0.5-5.3,0.1-7.9c0.5-2.9,1.1-5.8,3.6-8.4c1.1-1.2,2.5-2,4.1-2.4
			c1.9-0.5,3.8,0.2,5,1.7c0.7,1.1,1,2.4,0.8,3.7c-0.1,1.2-0.4,2.4-0.9,3.6c-1.9,4.2-6.3,7.9-12.4,10.4
			C247.5,432.2,247.4,432,247.4,431.7L247.4,431.7z M264,431.9c-1.3-1.3-2.2-3-2.5-4.8c-0.2-2.1,0.9-4.1,2.8-5
			c2.8,2.9,3.1,7.4,0.6,10.5C264.6,432.4,264.3,432.2,264,431.9L264,431.9z M279,408.5c-0.2-0.7-0.4-1.4-0.5-2.1
			c-0.2-0.7-0.3-1.3-0.2-2c0-0.3,0.2-0.7,0.5-0.9c0.5-0.3,1.1,0.4,1.3,0.7c0.6,0.6,1.1,1.1,1.6,1.8c1.9,2.4,3.1,5.2,3.5,8.1
			c0.3,1.6,0.4,3.3,0.5,4.9c0,0.1,0,0.3,0,0.5C282.6,416.4,280.3,412.7,279,408.5L279,408.5z M301.2,391.5c0.6,0.4,0.7,1.5,0.8,1.8
			l0.6,2.9c0.1,0.4,0.2,0.9,0.3,1.3C302,395.6,301.5,393.6,301.2,391.5L301.2,391.5z M296,418.5c-1.4,0.9-2.7,1.7-4,2.6
			c0-0.1,0-0.3-0.1-0.4c-0.4-1.6-0.8-3.3-1.1-4.9c-0.6-2.5-1.1-5-1.7-7.4c1.7,2.1,3.6,4,5.7,5.7c0.2,0.2,0.9,0.1,1-0.1
			c0.7-1.9,0.6-4-0.3-5.8l3,1.6c0.3,0.1,1.1,0.1,1-0.2s-0.3-0.7-0.4-1.1c1,0.4,2.1,0.6,3.2,0.4c2.6-0.3,3.5-1.6,3.4-3
			c-0.1-0.6-0.2-1.3-0.3-1.9c1.5,2,3.2,3.8,5.2,5.3c0.2,0.2,0.4,0.3,0.6,0.5l-0.3,0.1C305.6,412.6,300.7,415.6,296,418.5L296,418.5z
			 M319.6,409.2c-1.5,0.7-3.1,1.1-4.7,1.1c-0.7-0.1-1.3-0.2-1.9-0.5c4.4-2.2,9.1-3.8,13.9-4.6C324.7,406.9,322.2,408.2,319.6,409.2
			L319.6,409.2z"/>
		<path class="st3" d="M376.1,350.4c-0.2,0.1-0.3,0.2-0.3,0.3c0.6,4.8,1.9,9.4,4,13.7c-1.2,0.3-2.7,0.3-3.5-0.4
			c-0.2-0.2-1-0.2-1.1,0.1s-0.1,0.6-0.2,0.9l-2-1.2c-0.3-0.1-1.1-0.1-1,0.2l0.5,2.4c-0.8-0.4-1.5-1-2.2-1.6c-0.3-0.3-1.2-0.2-1,0.2
			c0.4,0.8,0.5,1.8,0.3,2.7c-1.2-0.9-2.3-1.8-3.3-2.9c-0.2-0.2-1.1-0.2-1,0.1c0.3,0.9,0.4,1.9,0.5,2.8c0,0.4,0,0.8,0,1.2
			s0.1,1-0.3,1.4c-0.6,0.6-1.4-0.4-1.6-0.7c-0.2-0.2-0.4-0.5-0.6-0.7c-0.3-1-0.7-2-1.2-2.9l0,0c0,0,0,0,0-0.1
			c-0.1-0.3-1.1-0.2-1.1,0.1c0.2,1.1,0.6,2.1,1.2,3c0.4,1.2,0.7,2.5,0.8,3.8c-1.1,0.7-2.2,1.5-3.3,2.2c0-0.1,0-0.1-0.1-0.1
			c-0.3-0.6-0.6-1.2-0.8-1.8c0.4-0.9,0.6-1.9,0.6-2.9c0.1-2.1-0.5-4.1-1.6-5.9c0.2-0.8,0.4-1.6,0.5-2.4c0.2-1.8-0.3-3.6-1.2-5.1
			c-1.2-2.1-3.4-3.6-5.8-3.9c-5.9-0.8-10.7,2.4-11.5,5.5c-1,3.7,2.1,7.5,4.5,10.8c1.3,1.8,2.6,3.7,3.8,5.5c-1.9,1.4-4,2.6-6.1,3.6
			c-1.4,0.7-2.8,1.3-4.2,1.8c-0.4,0.1,0.3,0.4,0.6,0.3c3.6-1.3,7-2.9,10.1-5c1.2,1.8,2.2,3.7,3.1,5.6c-3.4,2.9-5.9,6.1-6.2,9.8
			c-0.1,1.7,0.3,3.4,1.2,4.8c0.5,0.8,2.3,3.5,4.4,2.5c0.4-0.2,0.8-0.6,1-1c0.3-0.4,0.6-0.8,0.9-1.3c0.5-0.8,0.8-1.6,1.1-2.4
			c0.6-1.7,0.8-3.5,0.7-5.3c-0.2-2.4-0.8-4.8-1.9-7c2-1.7,4.1-3.2,6.3-4.7c0.3,0.7,0.8,1.3,1.4,1.8c0.9,0.6,2,0.6,2.9,0.1
			c0.4-0.3,0.6-0.7,0.6-1.2c0.1-0.5,0.1-0.9,0.1-1.4c0-0.9,0-1.8-0.1-2.7c0.6-0.4,1.3-0.9,1.9-1.3c0.5-0.3-0.6-0.5-0.9-0.3
			s-0.7,0.5-1,0.7c-0.1-0.5-0.1-0.9-0.3-1.4c0.5,0.3,1.1,0.4,1.7,0.3c1.6-0.3,1.4-1.6,1.4-2.4c0-0.8-0.1-1.6-0.3-2.4
			c0.9,0.8,1.9,1.6,2.9,2.3c0.2,0.2,0.9,0.1,1-0.1c0.3-0.7,0.4-1.6,0.2-2.3c0.7,0.5,1.4,0.9,2.1,1.2c0.3,0.1,1,0,0.9-0.2l-0.5-2.3
			l1.7,1c0.2,0.1,0.9,0.1,1-0.1s0.1-0.6,0.2-0.9c1.2,0.4,2.5,0.5,3.8,0.2c0.8,1.6,1.6,3.1,2.6,4.6c1.1,1.8,2.4,3.5,3.7,5.2
			c0.3,0.4,1.6,0.1,1.3-0.3c-2.5-3-4.6-6.4-6.3-9.9c1.4-0.6,2.4-1.9,2.5-3.5c0.3-3.2-0.8-6.4-2.9-8.8
			C380.1,351.4,378.4,349.5,376.1,350.4z M353.2,391.8c-0.4,1.9-1.2,3.6-2.4,5.1c-0.1,0.1-0.2,0.5-0.4,0.6s-0.2,0.1-0.5,0
			c-0.1-0.1-0.2-0.1-0.3-0.2c-0.4-0.3-0.8-0.7-1.1-1.1c-0.6-0.7-1-1.5-1.4-2.3c-1.2-3.3,0.1-6.8,2.6-9.8c0.7-0.8,1.4-1.6,2.2-2.3
			C353.4,384.9,353.8,388.4,353.2,391.8z M358.5,369.6c0,0.6,0,1.1-0.1,1.7c-0.1-0.5-0.3-1-0.4-1.4c-0.3-1.3-0.4-2.7-0.3-4
			C358.1,367,358.4,368.3,358.5,369.6L358.5,369.6z M343.3,365.5c-2.1-3.3-3.9-7.4,0.4-10.4c2.3-1.5,5.1-2.1,7.8-1.5
			c2.5,0.5,4.4,2.3,5.2,4.7c0.7,1.8,0.7,3.7,0.2,5.5c-0.1,0-0.1,0.1-0.1,0.1s0,0.3,0,0.4c-0.5,1.6-1.3,3.1-2.4,4.5
			c-1.5,2-3.3,3.7-5.3,5.2C347.1,371.2,345.1,368.3,343.3,365.5L343.3,365.5z M349.5,374.7c2.8-1.9,5.2-4.4,7-7.3
			c0.1,2,0.6,3.9,1.3,5.7c-0.3,1-1.1,1.8-2.1,1.9c-0.6,0.1,0,0.5,0.5,0.4c0.8-0.1,1.6-0.5,2.1-1.2c0.2,0.4,0.4,0.9,0.6,1.3
			c-2.2,1.5-4.4,3-6.3,4.6C351.7,378.3,350.6,376.5,349.5,374.7L349.5,374.7z M363.1,376.4c0,0.4,0.1,1-0.3,1.3
			c-0.7,0.5-1.3-0.1-1.6-0.5c-0.4-0.5-0.7-1-1-1.6c0.9-0.6,1.7-1.1,2.5-1.7l0.4-0.3C363.2,374.6,363.1,375.5,363.1,376.4
			L363.1,376.4z M379,352c0.6,0.6,1.1,1.2,1.5,1.9c0.8,1.3,1.4,2.8,1.7,4.3c0.4,1.4,0.3,3-0.1,4.4c-0.2,0.6-0.6,1.1-1.2,1.4
			c-1.2-2.5-2.1-5.2-2.8-7.9c-0.4-1.7-0.7-3.5-0.9-5.2C377.9,350.9,378.8,351.8,379,352z"/>
		<path class="st3" d="M396.5,361.9c-0.9,1-1.1,2.2-2.9,2.8c-0.7,0.3-1.5,0.3-2.2,0.2l0,0c-0.1-0.9-0.5-1.7-1.2-2.2
			c-0.6-0.4-1.4-0.4-2.1,0c-0.5,0.5,0.1,1.2,0.5,1.6c0.5,0.4,1,0.8,1.6,0.9c0,0.4-0.1,0.8-0.3,1.2c0,0.1-0.7,1.3-1,1.1
			s-0.8,0.1-0.4,0.2c1.6,0.7,2.6-1.5,2.7-2c0-0.1,0.1-0.3,0.1-0.4c0.8,0.1,1.6,0,2.3-0.2c2.2-0.5,3.6-2.1,3.8-3.4
			C397.5,361.7,396.7,361.8,396.5,361.9z M389.4,363.8c0-0.1-0.4-0.8-0.2-0.7c0,0,0.2,0.3,0.3,0.3s0.2,0.2,0.3,0.3
			c0.2,0.2,0.3,0.5,0.4,0.8C389.8,364.3,389.6,364,389.4,363.8L389.4,363.8z"/>
		<path class="st3" d="M392.7,358.2c-0.3,0.2,0.4,0.4,0.6,0.3S393,358,392.7,358.2z"/>
		<path class="st4" d="M325.6,412.9l-4.3,2c10,6.9,28.4,7.5,41,1.5l-3.4-2.3C348.7,419,333.8,418.5,325.6,412.9z M331.2,395.1
			c-9.1,4.3-10.6,11.9-3.5,16.8s20.4,5.4,29.5,1.1s10.6-11.9,3.4-16.8S340.3,390.8,331.2,395.1z M355.6,411.9
			c-7.9,3.8-19.4,3.4-25.7-1c-0.4-0.3-0.8-0.6-1.2-0.9l28.5,1.1C356.7,411.3,356.1,411.6,355.6,411.9L355.6,411.9z M359.3,409.5
			l-32-1.2c-2.3-3.2-1.5-6.9,2.1-9.9l31.9,1.2C363.5,402.8,362.8,406.6,359.3,409.5L359.3,409.5z M331.5,397
			c0.5-0.3,0.9-0.5,1.5-0.8c7.9-3.8,19.4-3.4,25.7,1c0.4,0.3,0.8,0.6,1.1,0.9L331.5,397z M317.1,417c11.8,8.1,33.6,8.9,48.6,1.8
			s17.5-19.6,5.7-27.7s-33.6-8.9-48.6-1.8S305.3,408.9,317.1,417L317.1,417z M369.2,392.1c10.9,7.5,8.6,18.9-5.2,25.5
			s-33.9,5.8-44.8-1.6s-8.6-18.9,5.2-25.5S358.3,384.6,369.2,392.1L369.2,392.1z M329.5,393.9c10.3-4.9,25.2-4.3,33.3,1.2l4.3-2
			c-10-6.9-28.4-7.5-41-1.5L329.5,393.9z"/>
		<path class="st5" d="M151.3,304.8l-2.9-6.2c0-0.1,0-0.2-0.1-0.4c0-0.2,0.1-0.3,0.4-0.5l1.4-0.8c0.2-0.1,0.4-0.1,0.6-0.1
			c0.2,0,0.4,0,0.6,0.1l13.3,7.7c0.1,0.1,0.2,0.2,0.2,0.3c0,0.1-0.1,0.3-0.2,0.3l-1.7,1c-0.4,0.2-0.8,0.2-1.1,0l-8.1-4.6l2,4.2
			c0,0.1,0,0.2,0,0.4c0,0.1-0.1,0.3-0.3,0.4l-1.1,0.6c-0.2,0.1-0.4,0.2-0.6,0.2c-0.2,0-0.4,0-0.6,0l-7.3-1.1l8.1,4.6
			c0.1,0.1,0.2,0.2,0.2,0.3c0,0.1-0.1,0.3-0.2,0.3l-1.7,1c-0.2,0.1-0.4,0.1-0.6,0.1c-0.2,0-0.4,0-0.6-0.1l-13.3-7.7
			c-0.2-0.1-0.3-0.3-0.2-0.5c0-0.1,0.1-0.2,0.2-0.2l1.4-0.8c0.3-0.1,0.5-0.2,0.8-0.2h0.6L151.3,304.8z"/>
		<path class="st5" d="M175.4,296.1c0.2-0.1,0.4-0.1,0.6-0.1c0.2,0,0.4,0,0.6,0.1l1.5,0.9c0.1,0.1,0.2,0.2,0.2,0.3
			c0,0.1-0.1,0.3-0.2,0.3l-9,5.2c-0.2,0.1-0.4,0.1-0.6,0.1c-0.2,0-0.4,0-0.6-0.1l-13.3-7.7c-0.2-0.1-0.3-0.2-0.2-0.4
			c0-0.1,0.1-0.2,0.2-0.2l8.9-5.1c0.2-0.1,0.4-0.1,0.6-0.1c0.2,0,0.4,0,0.6,0.1l1.5,0.9c0.1,0.1,0.2,0.2,0.2,0.3
			c0,0.1-0.1,0.3-0.2,0.3l-6.7,3.9l3.3,1.9l6.2-3.6c0.2-0.1,0.4-0.1,0.6-0.1c0.2,0,0.4,0,0.6,0.1l1.5,0.9c0.1,0.1,0.2,0.2,0.2,0.3
			c0,0.1-0.1,0.3-0.2,0.3l-6.3,3.6l3.4,2L175.4,296.1z"/>
		<path class="st5" d="M172.5,284c1.5-0.9,3.3-1.5,5.1-1.6c1.6-0.1,3.3,0.3,4.7,1.1c0.8,0.4,1.5,1.1,1.9,1.9
			c0.2,0.7,0.1,1.5-0.4,2.1l7.9,1.3c0.1,0,0.2,0,0.3,0.1c0.1,0.1,0.2,0.2,0.1,0.4c0,0.1-0.1,0.1-0.1,0.1l-1.8,1
			c-0.2,0.2-0.5,0.2-0.8,0.2c-0.2,0-0.4,0-0.6,0l-7.5-1.2l-2.7,1.6l4.8,2.8c0.1,0.1,0.2,0.2,0.2,0.3c0,0.1-0.1,0.3-0.2,0.3l-1.7,1
			c-0.2,0.1-0.4,0.1-0.6,0.1c-0.2,0-0.4,0-0.6-0.1l-13.3-7.7c-0.1-0.1-0.2-0.2-0.2-0.3c0-0.1,0.1-0.3,0.2-0.3L172.5,284z
			 M175.9,289.5l3-1.7c0.6-0.3,1.1-0.7,1.5-1.3c0.2-0.4-0.1-0.9-0.9-1.3c-0.7-0.4-1.5-0.6-2.3-0.5c-0.8,0.1-1.6,0.4-2.3,0.9l-3,1.7
			L175.9,289.5z"/>
		<path class="st5" d="M185.3,282.8c-0.7-0.4-1.3-0.9-1.8-1.6c-0.4-0.5-0.6-1.1-0.6-1.7c0.1-0.7,0.4-1.3,0.8-1.8
			c0.6-0.7,1.4-1.3,2.3-1.8c1.1-0.6,2.2-1.1,3.4-1.4c1-0.3,2-0.4,3-0.4c0.8,0,1.6,0,2.3,0.2c0.5,0.1,1,0.3,1.5,0.5
			c0.2,0.1,0.3,0.2,0.2,0.3c0,0.1-0.1,0.3-0.2,0.3l-1.7,1c-0.1,0.1-0.3,0.1-0.5,0.1c-0.1,0-0.3,0-0.4,0l-0.6-0.1c-0.4,0-0.8,0-1.1,0
			c-0.5,0.1-1,0.1-1.5,0.3c-0.6,0.2-1.2,0.4-1.8,0.8c-1,0.6-1.6,1.2-1.6,1.9s0.4,1.3,1.2,1.9c0.5,0.3,1.1,0.6,1.6,1s1.2,0.7,1.7,0.9
			c1.1,0.6,2.3,0.9,3.5,0.9c1.1-0.1,2.3-0.4,3.3-1c0.4-0.2,0.9-0.5,1.2-0.9c0.3-0.3,0.5-0.6,0.6-1c0.1-0.4,0-0.7-0.3-1
			c-0.3-0.4-0.8-0.8-1.2-1l-0.2-0.1l-2.5,1.5c-0.2,0.1-0.4,0.1-0.6,0.1c-0.2,0-0.4,0-0.6-0.1l-1.5-0.9c-0.1-0.1-0.2-0.2-0.2-0.3
			c0-0.1,0.1-0.3,0.2-0.3l4.7-2.7c0.4-0.2,0.8-0.2,1.1,0l2.3,1.3c0.7,0.4,1.4,0.9,1.9,1.5c0.4,0.5,0.6,1.1,0.6,1.7
			c-0.1,0.7-0.3,1.3-0.8,1.8c-0.7,0.7-1.4,1.4-2.3,1.8c-1,0.6-2,1-3.1,1.3c-1,0.3-2,0.4-3.1,0.4c-1,0-2-0.1-3-0.4
			c-0.9-0.2-1.9-0.6-2.7-1.1l-0.9-0.5c-0.3-0.2-0.6-0.4-1-0.6l-1-0.6L185.3,282.8z"/>
		<path class="st5" d="M216.6,272.3c0.2-0.1,0.4-0.1,0.6-0.1c0.2,0,0.4,0,0.6,0.1l1.5,0.8c0.1,0.1,0.2,0.2,0.2,0.3
			c0,0.1-0.1,0.3-0.2,0.3l-9,5.2c-0.4,0.2-0.8,0.2-1.1,0l-13.3-7.7c-0.1-0.1-0.2-0.2-0.2-0.3c0-0.1,0.1-0.3,0.2-0.3l8.9-5.1
			c0.2-0.1,0.4-0.1,0.6-0.1c0.2,0,0.4,0,0.6,0.1l1.5,0.9c0.1,0.1,0.2,0.2,0.2,0.3c0,0.1-0.1,0.3-0.2,0.3l-6.7,3.9l3.3,1.9l6.2-3.6
			c0.4-0.2,0.8-0.2,1.1,0l1.5,0.8c0.2,0.1,0.3,0.2,0.2,0.4c0,0.1-0.1,0.2-0.2,0.2l-6.2,3.6l3.4,2L216.6,272.3z"/>
		<path class="st5" d="M213.7,260.3c1.5-0.9,3.3-1.5,5.1-1.6c1.6-0.1,3.2,0.3,4.7,1.1c0.8,0.4,1.5,1.1,1.9,1.9
			c0.2,0.7,0.1,1.5-0.4,2.1l7.9,1.3c0.1,0,0.2,0.1,0.3,0.1c0.1,0,0.2,0.1,0.2,0.3c0,0.1-0.1,0.2-0.2,0.3l-1.8,1
			c-0.2,0.2-0.5,0.2-0.8,0.2c-0.2,0-0.4,0-0.6,0l-7.5-1.2l-2.7,1.6l4.8,2.8c0.1,0,0.2,0.2,0.2,0.3c0,0.1-0.1,0.3-0.2,0.3l-1.7,1
			c-0.2,0.1-0.4,0.1-0.6,0.1c-0.2,0-0.4,0-0.6-0.1l-13.3-7.7c-0.1-0.1-0.2-0.2-0.2-0.3c0-0.1,0.1-0.3,0.2-0.3L213.7,260.3z
			 M217.1,265.8l3-1.7c0.6-0.3,1.1-0.7,1.5-1.3c0.2-0.4-0.1-0.9-0.9-1.3c-0.7-0.4-1.5-0.6-2.3-0.5c-0.8,0.1-1.6,0.4-2.3,0.9l-3,1.7
			L217.1,265.8z"/>
		<path class="st5" d="M134,301.5c-0.1,0.1-0.3,0.1-0.4,0.1c-0.2,0-0.3,0-0.5-0.1l-10.9-6.3c-0.1,0-0.2-0.1-0.2-0.2
			c0-0.1,0.1-0.2,0.2-0.3l5-2.9c0.7-0.4,1.4-0.7,2.1-0.9c0.7-0.1,1.3-0.2,2-0.2c0.6,0,1.1,0.1,1.7,0.2c0.4,0.1,0.9,0.3,1.3,0.5
			c0.3,0.2,0.6,0.4,0.8,0.6c0.2,0.2,0.3,0.4,0.3,0.6c0.1,0.2,0.1,0.3,0.1,0.5c0,0.1,0,0.2-0.1,0.3c0.7-0.1,1.3-0.1,2,0
			c0.7,0.1,1.4,0.3,2.1,0.7c0.4,0.2,0.7,0.5,1,0.9c0.2,0.3,0.4,0.7,0.4,1c0,0.4-0.1,0.8-0.3,1.1c-0.3,0.5-0.8,0.8-1.3,1.1L134,301.5
			z M132.1,292.9c-0.4-0.2-0.9-0.4-1.4-0.3c-0.6,0.1-1.1,0.2-1.6,0.5l-3,1.7l2.6,1.5l3-1.7c0.6-0.3,0.9-0.6,1-0.9
			S132.5,293.2,132.1,292.9L132.1,292.9z M133.7,299.2l3.1-1.8c0.6-0.4,0.9-0.7,1-1s-0.2-0.6-0.6-0.9c-0.5-0.3-1-0.4-1.5-0.4
			c-0.6,0-1.2,0.2-1.8,0.5l-3.1,1.8L133.7,299.2z"/>
		<path class="st5" d="M142.4,283c0.1-0.1,0.3-0.1,0.5-0.1c0.2,0,0.3,0,0.4,0.1l6.9,4c0.6,0.3,1.1,0.7,1.6,1.3c0.8,0.8,0.8,2,0,2.8
			c-0.5,0.6-1.1,1-1.8,1.4c-0.8,0.4-1.6,0.8-2.4,1c-0.8,0.2-1.6,0.3-2.4,0.3c-0.8,0-1.6-0.1-2.4-0.3c-0.8-0.2-1.5-0.5-2.2-0.9
			l-6.9-4c-0.1-0.1-0.2-0.2-0.2-0.3c0-0.1,0.1-0.2,0.2-0.3l1.4-0.8c0.1-0.1,0.3-0.1,0.5-0.1c0.2,0,0.3,0,0.4,0.1l6.8,4
			c0.4,0.2,0.9,0.4,1.4,0.6c0.4,0.1,0.9,0.2,1.3,0.2c0.4,0,0.9-0.1,1.3-0.2c0.4-0.1,0.8-0.3,1.2-0.5c0.3-0.2,0.6-0.4,0.9-0.7
			c0.2-0.2,0.3-0.5,0.4-0.7c0-0.3-0.1-0.6-0.3-0.8c-0.3-0.3-0.6-0.6-1-0.8l-6.8-4c-0.1,0-0.2-0.2-0.2-0.4c0-0.1,0.1-0.1,0.2-0.2
			L142.4,283z"/>
		<path class="st5" d="M149.3,278.9c0.7-0.4,1.5-0.8,2.3-1c0.7-0.2,1.4-0.3,2.2-0.4c0.6,0,1.3,0,1.9,0.1c0.5,0.1,0.9,0.2,1.3,0.5
			c0.1,0.1,0.2,0.2,0.2,0.3c0,0.1-0.1,0.2-0.2,0.3l-1.2,0.7c-0.2,0.1-0.3,0.2-0.5,0.2c-0.2,0-0.4,0-0.6,0c-0.5-0.1-1-0.1-1.5,0
			c-0.7,0.1-1.3,0.4-1.8,0.7c-0.3,0.2-0.5,0.3-0.7,0.5c-0.2,0.2-0.3,0.3-0.4,0.5c-0.1,0.2-0.1,0.4,0,0.5c0.1,0.2,0.2,0.3,0.4,0.4
			c0.2,0.1,0.5,0.2,0.8,0.3c0.3,0,0.7,0,1-0.1c0.5-0.1,0.9-0.2,1.3-0.4l1.9-0.7c0.7-0.3,1.5-0.5,2.3-0.7c0.6-0.2,1.3-0.3,1.9-0.3
			c0.6,0,1.1,0,1.6,0.1c0.5,0.1,1,0.3,1.5,0.6c0.4,0.2,0.8,0.6,1.1,1c0.2,0.4,0.3,0.8,0.1,1.2c-0.2,0.5-0.4,1-0.8,1.3
			c-0.5,0.5-1.1,1-1.8,1.3c-0.6,0.4-1.3,0.7-2,0.9c-0.7,0.2-1.4,0.4-2.2,0.5c-0.7,0.1-1.4,0.1-2.1,0c-0.6-0.1-1.2-0.2-1.8-0.5
			c-0.1-0.1-0.2-0.2-0.2-0.3c0-0.1,0.1-0.2,0.2-0.3l1.2-0.7c0.2-0.1,0.3-0.2,0.5-0.2c0.2,0,0.4,0,0.6,0c0.2,0,0.5,0.1,0.7,0.1
			c0.3,0,0.6,0,0.8,0c0.3-0.1,0.7-0.1,1-0.3c0.4-0.2,0.8-0.3,1.2-0.6c0.3-0.2,0.6-0.4,0.9-0.6c0.2-0.2,0.4-0.4,0.6-0.6
			c0.1-0.2,0.2-0.4,0.1-0.6c-0.1-0.2-0.2-0.4-0.4-0.5c-0.3-0.1-0.6-0.2-0.9-0.2c-0.4,0-0.8,0.1-1.1,0.2c-0.4,0.1-0.9,0.3-1.5,0.5
			s-1.3,0.5-2,0.7c-0.7,0.2-1.3,0.4-2,0.6c-0.6,0.1-1.1,0.2-1.7,0.2c-0.5,0-1.1-0.1-1.6-0.2c-0.5-0.1-1-0.4-1.5-0.6
			c-0.4-0.2-0.8-0.6-1.1-1c-0.2-0.4-0.3-0.8-0.2-1.2c0.1-0.5,0.4-0.9,0.7-1.2C148.3,279.6,148.7,279.2,149.3,278.9z"/>
		<path class="st5" d="M168.6,281.5c-0.1,0.1-0.3,0.1-0.4,0.1c-0.2,0-0.3,0-0.5-0.1l-10.9-6.3c-0.1,0-0.2-0.1-0.2-0.3
			c0-0.1,0.1-0.2,0.2-0.3l1.4-0.8c0.1-0.1,0.3-0.1,0.4-0.1c0.2,0,0.3,0,0.5,0.1l10.9,6.3c0.1,0.1,0.2,0.2,0.2,0.3
			c0,0.1-0.1,0.2-0.2,0.3L168.6,281.5z"/>
		<path class="st5" d="M180.7,274.5c-0.2,0.1-0.4,0.2-0.6,0.2h-0.5l-11.7-1.3l6.9,4c0.1,0.1,0.2,0.2,0.2,0.3c0,0.1-0.1,0.2-0.2,0.3
			l-1.4,0.8c-0.1,0.1-0.3,0.1-0.4,0.1c-0.2,0-0.3,0-0.5-0.1l-10.9-6.3c-0.1-0.1-0.2-0.2-0.2-0.3c0-0.1,0.1-0.2,0.2-0.3l1.2-0.7
			c0.2-0.1,0.4-0.2,0.6-0.2h0.5l11.7,1.3l-6.9-4c-0.1,0-0.2-0.1-0.2-0.3c0-0.1,0.1-0.2,0.2-0.3l1.4-0.8c0.1-0.1,0.3-0.1,0.4-0.1
			c0.2,0,0.3,0,0.5,0.1l10.9,6.3c0.1,0.1,0.2,0.2,0.1,0.4c0,0.1-0.1,0.1-0.1,0.1L180.7,274.5z"/>
		<path class="st5" d="M190.7,266.3c0.1-0.1,0.3-0.1,0.5-0.1c0.2,0,0.3,0,0.4,0.1l1.2,0.7c0.1,0.1,0.2,0.2,0.2,0.3
			c0,0.1-0.1,0.2-0.2,0.3l-7.4,4.3c-0.1,0.1-0.3,0.1-0.4,0.1c-0.2,0-0.3,0-0.5-0.1l-10.9-6.3c-0.1-0.1-0.2-0.2-0.1-0.4
			c0-0.1,0.1-0.1,0.1-0.1l7.3-4.2c0.3-0.1,0.6-0.1,0.9,0l1.2,0.7c0.1,0,0.2,0.2,0.2,0.3c0,0.1-0.1,0.2-0.2,0.2l-5.4,3.1l2.7,1.5
			l5.1-2.9c0.3-0.1,0.6-0.1,0.9,0l1.2,0.7c0.1,0,0.2,0.2,0.2,0.3c0,0.1-0.1,0.2-0.2,0.2l-5.1,2.9l2.8,1.6L190.7,266.3z"/>
		<path class="st5" d="M187.5,256.8c0.7-0.4,1.5-0.8,2.3-1c0.7-0.2,1.4-0.3,2.2-0.4c0.6,0,1.3,0,1.9,0.1c0.5,0.1,0.9,0.2,1.4,0.4
			c0.2,0.1,0.2,0.2,0.2,0.3c0,0.1-0.1,0.2-0.2,0.3l-1.2,0.7c-0.2,0.1-0.3,0.2-0.5,0.2c-0.2,0-0.4,0-0.6,0c-0.5-0.1-1-0.1-1.5,0
			c-0.7,0.1-1.3,0.3-1.8,0.7c-0.3,0.2-0.5,0.3-0.8,0.5c-0.2,0.2-0.3,0.3-0.4,0.6c-0.1,0.2-0.1,0.3,0,0.5c0.1,0.2,0.2,0.3,0.4,0.4
			c0.2,0.1,0.5,0.2,0.8,0.3c0.3,0,0.7,0,1-0.1c0.5-0.1,0.9-0.2,1.3-0.4l1.9-0.7c0.7-0.3,1.5-0.5,2.3-0.7c0.6-0.2,1.3-0.3,1.9-0.3
			c0.6,0,1.1,0,1.6,0.1c0.5,0.1,1,0.3,1.5,0.6c0.4,0.2,0.8,0.6,1.1,1c0.2,0.4,0.3,0.8,0.1,1.2c-0.1,0.5-0.4,1-0.8,1.3
			c-0.5,0.5-1.1,1-1.8,1.3c-0.6,0.4-1.3,0.7-2,0.9c-0.7,0.2-1.4,0.4-2.2,0.5c-0.7,0.1-1.4,0.1-2.1,0c-0.6-0.1-1.2-0.2-1.8-0.5
			c-0.1-0.1-0.2-0.2-0.2-0.3c0-0.1,0.1-0.2,0.2-0.3l1.2-0.7c0.2-0.1,0.3-0.2,0.5-0.2c0.2,0,0.4,0,0.6,0c0.2,0,0.5,0.1,0.7,0.1
			c0.3,0,0.6,0,0.8,0c0.3-0.1,0.7-0.1,1-0.3c0.4-0.1,0.8-0.3,1.2-0.5c0.3-0.2,0.6-0.4,0.9-0.6c0.2-0.2,0.4-0.4,0.6-0.6
			c0.1-0.2,0.2-0.4,0.1-0.6c-0.1-0.2-0.2-0.4-0.4-0.5c-0.3-0.1-0.5-0.2-0.8-0.2c-0.4,0-0.8,0.1-1.1,0.2c-0.4,0.1-0.9,0.3-1.5,0.5
			l-2,0.7c-0.7,0.2-1.3,0.4-2,0.6c-0.6,0.1-1.1,0.2-1.7,0.2c-0.6,0-1.1,0-1.7-0.2c-0.5-0.1-1-0.4-1.5-0.6c-0.4-0.2-0.8-0.6-1.1-1
			c-0.2-0.4-0.3-0.8-0.2-1.2c0.1-0.5,0.4-0.9,0.8-1.2C186.4,257.5,186.9,257.1,187.5,256.8z"/>
		<path class="st5" d="M198.4,250.5c0.7-0.4,1.5-0.8,2.3-1c0.7-0.2,1.4-0.3,2.2-0.4c0.6,0,1.3,0,1.9,0.1c0.5,0.1,0.9,0.2,1.4,0.4
			c0.1,0.1,0.2,0.2,0.2,0.3c0,0.1-0.1,0.2-0.2,0.3l-1.2,0.7c-0.2,0.1-0.3,0.2-0.5,0.2c-0.2,0-0.4,0-0.6,0c-0.5-0.1-1-0.1-1.5,0
			c-0.7,0.1-1.3,0.4-1.8,0.7c-0.3,0.2-0.5,0.3-0.7,0.5c-0.2,0.2-0.3,0.3-0.4,0.6c-0.1,0.2-0.1,0.3,0,0.5c0.1,0.2,0.2,0.3,0.4,0.4
			c0.2,0.1,0.5,0.2,0.8,0.3c0.3,0,0.7,0,1-0.1c0.5-0.1,0.9-0.2,1.3-0.4l1.9-0.7c0.7-0.3,1.5-0.5,2.3-0.7c0.6-0.2,1.3-0.3,1.9-0.3
			c0.6,0,1.1,0,1.6,0.1c0.5,0.1,1,0.3,1.5,0.6c0.4,0.2,0.8,0.6,1.1,1c0.2,0.4,0.3,0.8,0.1,1.2c-0.2,0.5-0.4,0.9-0.8,1.3
			c-0.5,0.5-1.1,1-1.8,1.3c-0.6,0.4-1.3,0.7-2,0.9c-0.7,0.2-1.4,0.4-2.2,0.5c-0.7,0.1-1.4,0.1-2.1,0c-0.6-0.1-1.2-0.2-1.8-0.5
			c-0.1-0.1-0.2-0.2-0.2-0.3c0-0.1,0.1-0.2,0.2-0.3l1.2-0.7c0.2-0.1,0.3-0.2,0.5-0.2c0.2,0,0.4,0,0.6,0c0.2,0,0.5,0.1,0.7,0.1
			c0.3,0,0.6,0,0.9,0c0.3-0.1,0.7-0.1,1-0.3c0.4-0.1,0.8-0.3,1.2-0.6c0.3-0.2,0.6-0.4,0.9-0.6c0.2-0.2,0.3-0.4,0.5-0.6
			c0.1-0.2,0.2-0.4,0.1-0.6c-0.1-0.2-0.2-0.4-0.4-0.5c-0.3-0.2-0.6-0.2-0.9-0.2c-0.4,0-0.8,0.1-1.1,0.2c-0.4,0.1-0.9,0.3-1.5,0.5
			s-1.3,0.5-2,0.7c-0.6,0.2-1.3,0.4-1.9,0.6c-0.6,0.1-1.1,0.2-1.7,0.2c-0.5,0-1.1-0.1-1.6-0.2c-0.5-0.1-1-0.4-1.5-0.6
			c-0.4-0.2-0.8-0.6-1.1-1c-0.2-0.4-0.3-0.8-0.2-1.2c0.1-0.5,0.4-0.9,0.7-1.2C197.4,251.2,197.8,250.8,198.4,250.5z"/>
	</g>
</g>
<g id="freepik--Puzzle--inject-63">
	<g id="freepik--puzzle-pieces--inject-63">
		<path class="st6" d="M300.6,386.5c-20,12.6-36.6,22.8-45.2,23.1c-6.8,0.2-9.7-3.9-10.1-7.4c-0.3-2.8-2.1-5.3-4.6-6.7
			c-6.6-3.8-20-2.3-29.8,3.4s-12.4,13.4-5.9,17.2c1.9,1.1,5.4,2.4,11.6,2.6s13.2,1.9,12.9,5.9c-0.6,6.6-15.4,14.8-41,28
			c-5-2.9-9.6-5.7-13.7-8.1c-15.1-9.1-25.1-15.1-34.7-14.6c-8.3,0.4-12.9,5.4-14.4,9.5c-1.1,2.7-3,4.9-5.6,6.3
			c-6.7,3.9-18.3,3.4-26-1.1s-8.5-11.2-1.8-15c1.9-1.1,5.3-2.5,11-3.2c7.2-0.9,15.8-3.6,16.5-8.3c1-5.7-11.6-12.6-28.9-22.2
			c-4.3-2.4-8.8-4.8-13.3-7.5l6.7-4c22.9-13.5,31.3-19.4,41.5-19.7c6.8-0.2,9.7,3.9,10.1,7.4c0.3,2.8,2,5.3,4.6,6.7
			c6.6,3.8,20,2.3,29.8-3.4s12.4-13.4,5.8-17.2c-1.9-1.1-5.4-2.4-11.5-2.7s-13.2-1.9-12.8-5.9c0.6-6.9,15-15.2,38.2-27.2l5,2.9
			c21.1,12.2,33.8,19.6,45.2,19c8.2-0.4,12.9-5.4,14.4-9.5c1-2.7,3-4.9,5.5-6.3c6.7-3.9,18.4-3.4,26,1.1s8.5,11.2,1.9,15
			c-1.9,1.1-5.3,2.5-11,3.2c-7.1,0.9-15.7,3.6-16.5,8.3c-1,6.3,12.5,14.5,31.9,25.7L300.6,386.5z"/>
		<path class="st6" d="M382.1,341.9c-0.4,4.8,7.6,6.8,14.6,7c5.5,0.3,8.6,1.4,10.3,2.3c5.8,3.4,3.3,10.2-5.6,15.4
			s-20.8,6.6-26.5,3.2c-2.2-1.2-3.7-3.4-4-5.9c-0.5-4-3.9-8.7-12.2-8.5c-9.5,0.3-21.4,8.8-39.3,19.7c-5.1,3.1-10.9,6.7-17.1,10.3
			l-4.3-2.5c-20.2-11.6-36.2-20.8-35.2-27c0.6-4,8.2-6.2,14.4-7s10.2-2.4,12.3-3.6c7.6-4.4,6.9-12-1.6-16.9s-21.6-5.3-29.3-1
			c-2.9,1.6-5.1,4.1-6.3,7.1c-1.3,3.6-5.2,8-12.1,8.3c-10.4,0.6-22.9-6.7-43.6-18.6l-4.4-2.6c6.4-3.3,12.7-6.3,18.2-9
			c18.9-9.3,31.4-15.4,31.9-20.8c0.4-4.8-7.6-6.8-14.6-7c-5.6-0.2-8.6-1.4-10.3-2.3c-5.8-3.4-3.3-10.2,5.6-15.4s20.8-6.6,26.6-3.2
			c2.2,1.2,3.7,3.4,4,5.9c0.5,4,4,8.7,12.2,8.5c9.3-0.3,15-4.4,31.5-15.8c5.4-3.7,11-7.5,17-11.5c4.5,2.6,9,5.1,13.3,7.4
			c16.3,9,29.2,16.2,28.3,21.3c-0.6,3.9-8.2,6.2-14.4,7s-10.2,2.4-12.4,3.6c-7.6,4.4-6.9,12,1.6,16.9s21.7,5.3,29.3,0.9
			c2.9-1.6,5.1-4.1,6.3-7.1c2-4.9,6.7-8.2,12.1-8.3c8.6-0.5,18.3,5.4,33,14.3c4.1,2.5,8.8,5.3,13.9,8.2c-4.8,2.5-9.4,4.8-13.7,6.9
			C390.5,333,382.6,336,382.1,341.9z"/>
		<path class="st7" d="M242.3,264.1c0.4-4.8-7.6-6.8-14.6-7c-5.6-0.2-8.6-1.4-10.3-2.3c-1.9-0.9-3.1-2.7-3.1-4.8v24.8l0,0
			c0.1,2.1,1.3,3.9,3.1,4.8c0.6,0.4,1.3,0.7,2,0.9C233.2,273.6,241.9,268.6,242.3,264.1z"/>
		<path class="st8" d="M240.3,315.1V340c6.8-0.4,10.8-4.7,12.1-8.3v-24.8C251.1,310.5,247.1,314.8,240.3,315.1z"/>
		<path class="st9" d="M196.7,296.5l-4.4-2.6v24.9l4.4,2.6c20.7,12,33.2,19.2,43.6,18.6v-24.9C229.9,315.7,217.4,308.5,196.7,296.5z
			"/>
		<path class="st7" d="M287.9,300.6c-8.5-4.9-21.6-5.3-29.3-1c-2.9,1.6-5.1,4.1-6.3,7.1v24.9c1.2-3,3.4-5.6,6.3-7.1
			c4.1-2.4,9.9-3.3,15.6-2.9c1-0.2,1.9-0.3,2.9-0.5c6.3-0.8,10.2-2.4,12.3-3.6C297.1,313.1,296.4,305.5,287.9,300.6z"/>
		<path class="st7" d="M329.2,262.6c2.1-1.2,6-2.9,12.4-3.6s13.8-3.1,14.4-7c0-0.2,0.1-0.3,0-0.5v24.9l0,0c0,0.1,0,0.3,0,0.4
			c-0.5,3.4-6.1,5.5-11.6,6.5c-4.7-0.3-9.4-1.6-13.5-3.9C322.3,274.6,321.6,267,329.2,262.6z"/>
		<path class="st9" d="M297.9,355.1c-19.6-11.3-35.2-20.3-35.2-26.4l0,0v24.9l0,0c0,6.1,15.6,15.1,35.2,26.4l4.3,2.5v-24.9
			L297.9,355.1z"/>
		<path class="st8" d="M401.4,338.7c-8.9,5.1-20.8,6.6-26.6,3.2l-0.4,24.6l0.4,0.2c5.8,3.4,17.7,1.9,26.6-3.2
			c5.7-3.3,8.8-7.3,8.7-10.6l0,0v-24.6C410,331.6,407,335.5,401.4,338.7z"/>
		<path class="st7" d="M370.8,336c-0.5-4.1-3.9-8.7-12.2-8.5v24.9c8.3-0.2,11.7,4.4,12.2,8.5c0.3,2.4,1.6,4.5,3.6,5.7l0.4-24.6
			C372.6,340.7,371.1,338.5,370.8,336z"/>
		<path class="st8" d="M319.3,347.2c-5.1,3.2-10.9,6.7-17.1,10.3v24.9c6.2-3.6,12-7.2,17.1-10.3c17.9-11,29.8-19.5,39.3-19.7v-24.8
			C349.1,327.8,337.2,336.3,319.3,347.2z"/>
		<path class="st8" d="M425.4,287.5v24.9c-4.8,2.5-9.4,4.8-13.7,6.9c-2.3,1.1-4.4,2.2-6.4,3.2c-2.7-1-5.6-1.5-8.5-1.5
			c-7-0.3-15-2.3-14.6-7c0.5-5.9,8.4-8.9,29.6-19.5C416,292.3,420.6,290,425.4,287.5z"/>
		<path class="st8" d="M382.1,314c-0.4,4.8,7.6,6.8,14.6,7c5.5,0.2,8.6,1.4,10.3,2.3c5.8,3.4,3.3,10.2-5.6,15.4s-20.8,6.6-26.5,3.2
			c-2.2-1.2-3.7-3.4-4-5.9c-0.5-4-3.9-8.7-12.2-8.5c-9.5,0.3-21.4,8.8-39.3,19.7c-5.1,3.1-10.9,6.7-17.1,10.3l-4.3-2.5
			c-20.2-11.6-36.2-20.8-35.2-27c0.6-4,8.2-6.2,14.4-7s10.2-2.4,12.3-3.6c7.6-4.4,6.9-12-1.6-16.9s-21.6-5.3-29.3-1
			c-2.9,1.6-5.1,4.1-6.3,7.1c-1.3,3.6-5.2,8-12.1,8.3c-10.4,0.6-22.9-6.7-43.6-18.6l-4.4-2.6c6.4-3.3,12.7-6.3,18.2-9
			c18.9-9.3,31.4-15.4,31.9-20.8c0.4-4.8-7.6-6.8-14.6-7c-5.6-0.2-8.6-1.4-10.3-2.3c-5.8-3.3-3.3-10.2,5.6-15.3s20.8-6.6,26.6-3.2
			c2.2,1.2,3.7,3.4,4,5.9c0.5,4,4,8.7,12.2,8.5c9.3-0.3,15-4.4,31.5-15.8c5.4-3.7,11-7.5,17-11.5c4.5,2.6,9,5.1,13.3,7.4
			c16.3,9,29.2,16.2,28.3,21.3c-0.6,3.9-8.2,6.2-14.4,7s-10.2,2.4-12.4,3.6c-7.6,4.4-6.9,12,1.6,16.9s21.7,5.3,29.3,0.9
			c2.9-1.6,5.1-4.1,6.3-7.1c2-5,6.8-8.3,12.1-8.4c8.6-0.5,18.3,5.4,33,14.3c4.1,2.5,8.8,5.3,13.9,8.3c-4.8,2.5-9.4,4.8-13.7,6.9
			C390.5,305.1,382.6,308.1,382.1,314z"/>
		<path class="st7" d="M314.4,225.6c4,2.3,7.8,4.4,11.6,6.5l0.7,0.4c8.2,4.6,15.3,8.5,20.4,12c6.5,4.5,7,6.5,6.9,7.2
			c-0.3,2.1-5.9,4.5-12.7,5.3s-10.8,2.6-13.1,3.9c-4.1,2.3-6.3,5.6-6.3,9.3c0,4.1,2.9,8.1,7.9,11c5.3,2.8,11.1,4.3,17.1,4.3
			c4.9,0.1,9.8-1,14.2-3.3c3.3-1.8,5.8-4.7,7.2-8.2c1.1-3,4.5-6.7,10.3-7c0.3,0,0.6,0,0.9,0c7.8,0,17.6,5.9,31,14
			c2.9,1.8,6.6,4,10.7,6.4l-6.5,3.3l-3.9,2c-3,1.5-5.7,2.8-8.1,4c-16,7.9-22,10.9-22.5,17.1c-0.1,1.6,0.4,3.3,1.5,4.5
			c3.5,3.9,11.7,4.6,15,4.7c5.1,0.2,7.9,1.3,9.4,2.1c1.2,0.5,2,1.7,2.1,3.1c0,2.6-3,6.1-7.8,8.8c-5.3,3-11.2,4.7-17.2,4.8
			c-2.5,0.1-5.1-0.4-7.3-1.5c-1.7-0.9-2.8-2.5-3-4.4c-0.5-4.7-4.4-10.3-13.6-10.3h-0.6c-8.5,0.2-18.4,6.4-32.1,15
			c-2.6,1.6-5.3,3.3-8.2,5.1c-6,3.7-11.2,6.8-16,9.7l-3.3-1.9c-9.8-5.6-19-11-25.4-15.5c-8.1-5.7-9-8.4-8.8-9.5
			c0.4-2.2,5.8-4.5,12.7-5.3c6.7-0.8,10.8-2.6,13.1-3.9c4-2.3,6.3-5.6,6.3-9.3c0-4.1-2.9-8.1-7.9-11c-5.3-2.8-11.1-4.3-17.1-4.3
			c-4.9-0.1-9.8,1-14.1,3.3c-3.3,1.8-5.8,4.7-7.2,8.2c-1.1,3-4.4,6.7-10.3,7h-1.1c-9.7,0-21.6-6.9-41.4-18.4l-1.3-0.7
			c5.3-2.7,10.4-5.2,14.9-7.4c20.2-9.9,32.4-15.9,33-22.5c0.1-1.6-0.4-3.2-1.6-4.5c-3.5-3.9-11.6-4.6-15-4.8c-5.1-0.2-7.9-1.2-9.4-2
			c-1.2-0.5-2.1-1.7-2.1-3.1c0-2.6,3-6.1,7.7-8.8c5.3-3,11.2-4.7,17.3-4.8c2.5-0.1,5.1,0.4,7.3,1.5c1.7,0.9,2.8,2.5,3,4.4
			c0.5,4.7,4.4,10.2,13.6,10.2h0.6c9.6-0.3,15.5-4.3,31.2-15.1l1.4-1C302.7,233.6,308.2,229.7,314.4,225.6 M314.4,223.3
			c-6,4-11.6,7.8-17,11.5c-16.6,11.3-22.4,15.4-31.6,15.7h-0.5c-7.9,0-11.2-4.5-11.6-8.5c-0.3-2.5-1.8-4.7-4-5.9
			c-2.6-1.3-5.4-1.9-8.3-1.8c-6.4,0.1-12.7,1.8-18.3,5c-8.9,5.1-11.4,12-5.6,15.3c1.6,0.9,4.7,2.1,10.3,2.3c7,0.3,15,2.3,14.6,7
			c-0.5,5.5-13,11.6-31.9,20.8c-5.5,2.7-11.7,5.7-18.2,9l4.4,2.6c19.9,11.5,32.3,18.7,42.5,18.7h1.2c6.8-0.4,10.8-4.7,12.1-8.3
			c1.2-3,3.4-5.6,6.3-7.1c4.1-2.1,8.6-3.1,13.1-3c5.6-0.1,11.2,1.3,16.1,4c8.5,4.9,9.2,12.5,1.6,16.9c-2.1,1.3-6,2.9-12.3,3.6
			s-13.8,3-14.4,7c-1,6.1,15,15.3,35.2,27l4.3,2.5c6.2-3.6,12-7.2,17.1-10.3c17.9-11,29.8-19.5,39.3-19.7h0.6
			c7.9,0,11.2,4.5,11.6,8.5c0.3,2.5,1.8,4.7,4,5.9c2.6,1.3,5.4,1.9,8.3,1.8c6.4-0.1,12.7-1.8,18.2-5c8.9-5.1,11.4-12,5.6-15.4
			c-1.6-0.9-4.7-2.1-10.3-2.3c-7-0.3-15-2.3-14.6-7c0.5-5.9,8.4-8.8,29.6-19.5c4.3-2.2,8.9-4.5,13.7-6.9c-5.1-2.9-9.7-5.7-13.8-8.3
			c-14.2-8.7-23.7-14.4-32.1-14.4h-1c-5.3,0.1-10.1,3.4-12.1,8.3c-1.2,3-3.4,5.6-6.3,7.1c-4.1,2.1-8.6,3.2-13.2,3
			c-5.6,0.1-11.2-1.3-16.1-4c-8.5-4.9-9.3-12.5-1.6-16.9c2.1-1.2,6-2.9,12.4-3.6s13.8-3.1,14.4-7c0.9-5.1-12-12.2-28.3-21.3
			C323.3,228.4,318.8,225.9,314.4,223.3L314.4,223.3z"/>
		<path class="st1" d="M300.6,358.6c-20,12.6-36.6,22.8-45.2,23.1c-6.8,0.2-9.7-3.9-10.1-7.4c-0.3-2.8-2.1-5.3-4.6-6.7
			c-6.6-3.8-20-2.3-29.8,3.4s-12.4,13.4-5.9,17.2c1.9,1.1,5.4,2.4,11.6,2.6s13.2,1.9,12.9,5.9c-0.6,6.6-15.4,14.8-41,28
			c-5-2.9-9.6-5.7-13.7-8.1c-15.1-9.1-25.1-15.1-34.7-14.6c-8.3,0.4-12.9,5.4-14.4,9.5c-1.1,2.7-3,4.9-5.6,6.3
			c-6.7,3.9-18.3,3.4-26-1.1s-8.5-11.2-1.8-15c1.9-1.1,5.3-2.5,11-3.2c7.2-0.9,15.8-3.6,16.5-8.3c1-5.7-11.6-12.6-28.9-22.2
			c-4.3-2.4-8.8-4.8-13.3-7.5l6.7-4c22.9-13.5,31.3-19.4,41.5-19.7c6.8-0.2,9.7,3.9,10.1,7.4c0.3,2.8,2,5.3,4.6,6.7
			c6.6,3.8,20,2.3,29.8-3.4s12.4-13.4,5.8-17.2c-1.9-1.1-5.4-2.4-11.5-2.7s-13.2-1.9-12.8-5.9c0.6-6.9,15-15.2,38.2-27.2l5,2.9
			c21.1,12.2,33.8,19.6,45.2,19c8.2-0.4,12.9-5.4,14.4-9.5c1-2.7,3-4.9,5.5-6.3c6.7-3.9,18.4-3.4,26,1.1s8.5,11.2,1.9,15
			c-1.9,1.1-5.3,2.5-11,3.2c-7.1,0.9-15.7,3.6-16.5,8.3c-1,6.3,12.5,14.5,31.9,25.7L300.6,358.6z"/>
		<path class="st5" d="M189.9,296.9l4.1,2.4c20.7,12,33.2,19.3,44.9,19.3c0.5,0,1,0,1.5,0c9.2-0.5,14.5-6.2,16.2-10.9
			c0.9-2.3,2.5-4.1,4.7-5.3c3.2-1.6,6.7-2.5,10.3-2.3c4.8,0,9.5,1.1,13.7,3.4c3.4,2,5.4,4.4,5.4,6.8s-1.9,3.8-3.5,4.8
			s-4.9,2.3-10.3,2.9c-4,0.5-17,2.6-18.3,10c-1.3,7.6,11.7,15.5,32.9,27.7l5.4,3.1c-18.2,11.5-33.6,20.7-41.4,21h-0.5
			c-5.1,0-7.3-2.9-7.6-5.6c-0.4-3.5-2.5-6.5-5.6-8.2c-3.3-1.7-7-2.6-10.7-2.4c-7.4,0.1-14.7,2.1-21.1,5.7
			c-6.7,3.8-10.5,8.7-10.5,13.3c0,3,1.6,5.6,4.6,7.3s7.3,2.7,12.5,2.9c5,0.2,9.3,1.3,10.6,2.8c0.2,0.2,0.4,0.5,0.3,0.8
			c-0.5,5.6-17.1,14.6-39,25.9c-4.3-2.5-8.5-5-12.7-7.6c-14.9-9-24.7-15-34.6-15c-0.4,0-0.8,0-1.3,0c-9.2,0.5-14.5,6.1-16.2,10.9
			c-0.9,2.3-2.6,4.1-4.7,5.3c-3.2,1.7-6.7,2.5-10.3,2.4c-4.8,0.1-9.5-1.1-13.7-3.3c-3.4-2-5.3-4.4-5.3-6.7s1.9-3.9,3.5-4.8
			s4.9-2.3,10.2-3c4-0.5,17.1-2.6,18.3-10c1.2-7.1-10.5-13.5-29.9-24.3l-0.7-0.4c-3.1-1.7-6.3-3.5-9.6-5.4l1.5-0.9l2.3-1.4l7.9-4.7
			c16.7-9.9,24.3-14.5,32.6-14.7h0.4c5.1,0,7.3,2.9,7.6,5.6c0.4,3.5,2.5,6.5,5.6,8.2c3.3,1.7,7,2.5,10.7,2.4
			c7.4-0.1,14.7-2.1,21.1-5.8c6.7-3.8,10.5-8.7,10.5-13.3c0-3-1.7-5.6-4.6-7.3s-7.2-2.7-12.5-2.9c-5-0.2-9.2-1.3-10.6-2.8
			c-0.2-0.2-0.4-0.5-0.3-0.9C154.2,316,171,306.7,189.9,296.9 M189.9,294.6c-23.2,12-37.7,20.3-38.2,27.2c-0.4,3.9,6.7,5.6,12.8,5.9
			s9.7,1.6,11.5,2.7c6.6,3.8,4,11.5-5.8,17.2c-6.1,3.5-13,5.4-20.1,5.5c-3.4,0.1-6.7-0.6-9.7-2.1c-2.5-1.3-4.2-3.8-4.6-6.7
			c-0.4-3.5-3.2-7.4-9.6-7.4h-0.5c-10.1,0.3-18.6,6.1-41.5,19.7l-6.7,4c4.5,2.6,9,5.1,13.3,7.5c17.3,9.6,29.8,16.5,28.9,22.2
			c-0.8,4.8-9.4,7.5-16.5,8.3c-5.7,0.7-9.1,2.1-11,3.2c-6.7,3.8-5.9,10.6,1.8,15c4.5,2.5,9.6,3.7,14.7,3.7c3.9,0.1,7.8-0.8,11.3-2.6
			c2.5-1.4,4.5-3.6,5.6-6.3c1.5-4.1,6.1-9.1,14.4-9.5c0.4,0,0.8,0,1.2,0c9.3,0,19,5.9,33.5,14.7c4,2.5,8.6,5.2,13.7,8.1
			c25.6-13.1,40.4-21.4,41-28c0.3-3.9-6.7-5.6-12.9-5.9s-9.7-1.6-11.6-2.6c-6.6-3.8-4-11.5,5.9-17.2c6.1-3.5,13-5.4,20.1-5.5
			c3.4-0.1,6.7,0.6,9.7,2.1c2.5,1.3,4.3,3.8,4.6,6.7c0.4,3.5,3.2,7.4,9.6,7.4h0.5c8.6-0.3,25.3-10.4,45.2-23.1l-8.3-4.8
			c-19.3-11.2-32.9-19.4-31.9-25.7c0.8-4.7,9.4-7.5,16.5-8.3c5.7-0.6,9.1-2.1,11-3.2c6.7-3.9,5.9-10.6-1.9-15
			c-4.5-2.4-9.5-3.7-14.6-3.7c-3.9-0.1-7.8,0.8-11.3,2.6c-2.5,1.4-4.5,3.6-5.6,6.3c-1.5,4.1-6.2,9.1-14.4,9.5c-0.4,0-0.9,0-1.4,0
			c-11.1,0-23.6-7.3-43.9-19L189.9,294.6L189.9,294.6z"/>
		<path class="st5" d="M90.8,392.8c-4.3-2.4-8.8-4.8-13.3-7.5v-24.8c4.5,2.6,9,5.1,13.3,7.5c17.3,9.6,29.8,16.5,28.9,22.2
			c-0.8,4.8-9.4,7.5-16.5,8.3c-0.6,0.1-1.2,0.2-1.8,0.3C98.2,396.9,94.6,394.9,90.8,392.8z"/>
		<path class="st6" d="M90.8,392.8c-4.3-2.4-8.8-4.8-13.3-7.5v-24.8c4.5,2.6,9,5.1,13.3,7.5c17.3,9.6,29.8,16.5,28.9,22.2
			c-0.8,4.8-9.4,7.5-16.5,8.3c-0.6,0.1-1.2,0.2-1.8,0.3C98.2,396.9,94.6,394.9,90.8,392.8z"/>
		<path class="st5" d="M159,351.9c-4.2-0.8-7.6-2.5-7.3-5.2l0,0v-24.6c0,3.7,6.8,5.4,12.8,5.6c6.2,0.3,9.7,1.6,11.5,2.7
			c6.6,3.8,4,11.5-5.8,17.2C166.7,349.5,163,351,159,351.9L159,351.9z"/>
		<path class="st10" d="M159,351.9c-4.2-0.8-7.6-2.5-7.3-5.2l0,0v-24.6c0,3.7,6.8,5.4,12.8,5.6c6.2,0.3,9.7,1.6,11.5,2.7
			c6.6,3.8,4,11.5-5.8,17.2C166.7,349.5,163,351,159,351.9L159,351.9z"/>
		<path class="st5" d="M94,416.7c-4.2-2.4-6.3-5.5-6.3-8.5l0,0V433l0,0c0,3,2.1,6.1,6.3,8.5c7.7,4.5,19.4,4.9,26,1.1v-24.8
			C113.4,421.6,101.7,421.1,94,416.7z"/>
		<path class="st10" d="M94,416.7c-4.2-2.4-6.3-5.5-6.3-8.5l0,0V433l0,0c0,3,2.1,6.1,6.3,8.5c7.7,4.5,19.4,4.9,26,1.1v-24.8
			C113.4,421.6,101.7,421.1,94,416.7z"/>
		<path class="st5" d="M120.1,417.8v24.9c2.5-1.4,4.5-3.6,5.6-6.3v-24.9C124.6,414.1,122.6,416.4,120.1,417.8z"/>
		<path class="st5" d="M120.1,417.8v24.9c2.5-1.4,4.5-3.6,5.6-6.3v-24.9C124.6,414.1,122.6,416.4,120.1,417.8z"/>
		<path class="st5" d="M174.8,416.5c-15.1-9.1-25.1-15.2-34.7-14.6c-8.3,0.4-12.9,5.4-14.4,9.5v24.9c1.5-4.1,6.1-9.1,14.4-9.6
			c9.6-0.5,19.6,5.5,34.7,14.6c4,2.5,8.6,5.2,13.7,8.1v-24.8C183.4,421.7,178.8,419,174.8,416.5z"/>
		<path class="st6" d="M174.8,416.5c-15.1-9.1-25.1-15.2-34.7-14.6c-8.3,0.4-12.9,5.4-14.4,9.5v24.9c1.5-4.1,6.1-9.1,14.4-9.6
			c9.6-0.5,19.6,5.5,34.7,14.6c4,2.5,8.6,5.2,13.7,8.1v-24.8C183.4,421.7,178.8,419,174.8,416.5z"/>
		<path class="st5" d="M188.4,424.6v24.9c25.6-13.1,40.4-21.4,41-28v-24.9C228.9,403.3,214,411.5,188.4,424.6z"/>
		<path class="st5" d="M260.5,328.2c0.8-4.7,9.4-7.5,16.5-8.3c5.7-0.6,9.1-2.1,11-3.2c3-1.8,4.5-4.1,4.5-6.6v24.8l0,0
			c0,2.5-1.4,4.9-4.5,6.6c-1.9,1.1-5.3,2.5-11,3.2l0,0C266.3,338,259.8,332.6,260.5,328.2z"/>
		<path class="st6" d="M260.5,328.2c0.8-4.7,9.4-7.5,16.5-8.3c5.7-0.6,9.1-2.1,11-3.2c3-1.8,4.5-4.1,4.5-6.6v24.8l0,0
			c0,2.5-1.4,4.9-4.5,6.6c-1.9,1.1-5.3,2.5-11,3.2l0,0C266.3,338,259.8,332.6,260.5,328.2z"/>
		<path class="st5" d="M240.7,367.6c-6.6-3.8-20-2.3-29.8,3.4s-12.4,13.4-5.9,17.2c1.9,1.1,5.4,2.4,11.6,2.6
			c1.9,0.1,3.7,0.3,5.5,0.6c7.2-1.7,14.3-1.5,18.6,1c2.5,1.3,4.2,3.8,4.6,6.7v-24.8C245,371.5,243.2,369,240.7,367.6z"/>
		<path class="st6" d="M240.7,367.6c-6.6-3.8-20-2.3-29.8,3.4s-12.4,13.4-5.9,17.2c1.9,1.1,5.4,2.4,11.6,2.6
			c1.9,0.1,3.7,0.3,5.5,0.6c7.2-1.7,14.3-1.5,18.6,1c2.5,1.3,4.2,3.8,4.6,6.7v-24.8C245,371.5,243.2,369,240.7,367.6z"/>
		<path class="st5" d="M255.4,381.7v24.9c8.6-0.3,25.3-10.4,45.2-23.1v-24.9C280.7,371.3,264.1,381.4,255.4,381.7z"/>
		<path class="st5" d="M245.3,374.3v24.9c0.4,3.5,3.3,7.6,10.1,7.4v-24.8C248.6,381.9,245.7,377.8,245.3,374.3z"/>
		<path class="st10" d="M245.3,374.3v24.9c0.4,3.5,3.3,7.6,10.1,7.4v-24.8C248.6,381.9,245.7,377.8,245.3,374.3z"/>
		<path class="st9" d="M302.2,357.6v24.9l-1.6-0.9v-22.9l-8.3-4.8c-14.1-8.1-25.1-14.7-29.6-20.1v-5.1l0,0
			c0,6.1,15.6,15.1,35.2,26.4L302.2,357.6z"/>
		<path class="st1" d="M411.7,294.5c4.3-2.2,8.9-4.5,13.7-6.9c-5.1-2.9-9.7-5.7-13.9-8.3c-14.7-8.9-24.4-14.8-33-14.3
			c-5.3,0.1-10.1,3.4-12.1,8.3c-1.2,3-3.4,5.6-6.3,7.1c-7.6,4.4-20.8,4-29.3-0.9s-9.3-12.5-1.6-16.9c2.1-1.2,6-2.9,12.4-3.6
			s13.8-3.1,14.4-7c0.9-5.1-12-12.2-28.3-21.3c-4.3-2.4-8.8-4.8-13.3-7.4c-6,4-11.6,7.8-17,11.5c-16.6,11.4-22.4,15.5-31.6,15.8
			c-8.2,0.2-11.7-4.4-12.2-8.5c-0.3-2.5-1.8-4.7-4-5.9c-5.8-3.4-17.7-1.9-26.6,3.2s-11.4,12-5.6,15.3c1.6,0.9,4.7,2.1,10.3,2.3
			c7,0.3,15,2.3,14.6,7c-0.5,5.5-13,11.6-31.9,20.8c-5.5,2.7-11.7,5.7-18.2,9l4.4,2.6c20.7,12,33.2,19.2,43.6,18.6
			c6.8-0.4,10.8-4.7,12.1-8.3c1.2-3,3.4-5.6,6.3-7.1c7.6-4.4,20.8-4,29.3,1s9.2,12.5,1.6,16.9c-2.1,1.3-6,2.9-12.3,3.6
			s-13.8,3-14.4,7c-1,6.1,15,15.3,35.2,27l4.3,2.5c6.2-3.6,12-7.2,17.1-10.3c17.9-11,29.8-19.5,39.3-19.7c8.3-0.2,11.7,4.4,12.2,8.5
			c0.3,2.5,1.8,4.7,4,5.9c5.8,3.4,17.7,1.9,26.5-3.2s11.4-12,5.6-15.4c-1.6-0.9-4.7-2.1-10.3-2.3c-7-0.3-15-2.3-14.6-7
			C382.6,308.1,390.5,305.1,411.7,294.5z"/>
		<path class="st8" d="M314.4,225.6c4,2.3,7.8,4.4,11.6,6.5l0.7,0.4c8.2,4.6,15.3,8.5,20.4,12c6.5,4.5,7,6.5,6.9,7.2
			c-0.3,2.1-5.9,4.5-12.7,5.3s-10.8,2.6-13.1,3.9c-4.1,2.3-6.3,5.6-6.3,9.3c0,4.1,2.9,8.1,7.9,11c5.3,2.8,11.1,4.3,17.1,4.3
			c4.9,0.1,9.8-1,14.2-3.3c3.3-1.8,5.8-4.7,7.2-8.2c1.1-3,4.5-6.7,10.3-7c0.3,0,0.6,0,0.9,0c7.8,0,17.6,5.9,31,14
			c2.9,1.8,6.6,4,10.7,6.4l-6.5,3.3l-3.9,2c-3,1.5-5.7,2.8-8.1,4c-16,7.9-22,10.9-22.5,17.1c-0.1,1.6,0.4,3.3,1.5,4.5
			c3.5,3.9,11.7,4.6,15,4.7c5.1,0.2,7.9,1.3,9.4,2.1c1.2,0.5,2,1.7,2.1,3.1c0,2.6-3,6.1-7.8,8.8c-5.3,3-11.2,4.7-17.2,4.8
			c-2.5,0.1-5.1-0.4-7.3-1.5c-1.7-0.9-2.8-2.5-3-4.4c-0.5-4.7-4.4-10.3-13.6-10.3h-0.6c-8.5,0.2-18.4,6.4-32.1,15
			c-2.6,1.6-5.3,3.3-8.2,5.1c-6,3.7-11.2,6.8-16,9.7l-3.3-1.9c-9.8-5.6-19-11-25.4-15.5c-8.1-5.7-9-8.4-8.8-9.5
			c0.4-2.2,5.8-4.5,12.7-5.3c6.7-0.8,10.8-2.6,13.1-3.9c4-2.3,6.3-5.6,6.3-9.3c0-4.1-2.9-8.1-7.9-11c-5.3-2.8-11.1-4.3-17.1-4.3
			c-4.9-0.1-9.8,1-14.1,3.3c-3.3,1.8-5.8,4.7-7.2,8.2c-1.1,3-4.4,6.7-10.3,7c-0.4,0-0.7,0-1.1,0c-9.7,0-21.6-6.9-41.4-18.4l-1.3-0.7
			c5.3-2.7,10.4-5.2,14.9-7.4c20.2-9.9,32.4-15.9,33-22.5c0.1-1.6-0.4-3.2-1.6-4.5c-3.5-3.9-11.6-4.6-15-4.8c-5.1-0.2-7.9-1.2-9.4-2
			c-1.2-0.5-2.1-1.7-2.1-3.1c0-2.6,3-6.1,7.7-8.8c5.3-3,11.2-4.7,17.3-4.8c2.5-0.1,5.1,0.4,7.3,1.5c1.7,0.9,2.8,2.5,3,4.4
			c0.5,4.7,4.4,10.2,13.6,10.2h0.6c9.6-0.3,15.5-4.3,31.2-15.1l1.4-1C302.7,233.6,308.2,229.7,314.4,225.6 M314.4,223.3
			c-6,4-11.6,7.8-17,11.5c-16.6,11.3-22.4,15.4-31.6,15.7h-0.5c-7.9,0-11.2-4.5-11.6-8.5c-0.3-2.5-1.8-4.7-4-5.9
			c-2.6-1.3-5.4-1.9-8.3-1.8c-6.4,0.1-12.7,1.8-18.3,5c-8.9,5.1-11.4,12-5.6,15.3c1.6,0.9,4.7,2.1,10.3,2.3c7,0.3,15,2.3,14.6,7
			c-0.5,5.5-13,11.6-31.9,20.8c-5.5,2.7-11.7,5.7-18.2,9l4.4,2.6c19.9,11.5,32.3,18.7,42.4,18.7c0.4,0,0.8,0,1.2,0
			c6.8-0.4,10.8-4.7,12.1-8.3c1.2-3,3.4-5.6,6.3-7.1c4.1-2.1,8.6-3.1,13.1-3c5.6-0.1,11.2,1.3,16.1,4c8.5,4.9,9.2,12.5,1.6,16.9
			c-2.1,1.3-6,2.9-12.3,3.6s-13.8,3-14.4,7c-1,6.1,15,15.3,35.2,27l4.3,2.5c6.2-3.6,12-7.2,17.1-10.3c17.9-11,29.8-19.5,39.3-19.7
			h0.6c7.9,0,11.2,4.5,11.6,8.5c0.3,2.5,1.8,4.7,4,5.9c2.6,1.3,5.4,1.9,8.3,1.8c6.4-0.1,12.7-1.8,18.2-5c8.9-5.1,11.4-12,5.6-15.4
			c-1.6-0.9-4.7-2.1-10.3-2.3c-7-0.3-15-2.3-14.6-7c0.5-5.9,8.4-8.8,29.6-19.5c4.3-2.2,8.9-4.5,13.7-6.9c-5.1-2.9-9.7-5.7-13.9-8.3
			c-14.1-8.7-23.7-14.4-32.1-14.4h-1c-5.3,0.1-10.1,3.4-12.1,8.3c-1.2,3-3.4,5.6-6.3,7.1c-4.1,2.1-8.6,3.2-13.2,3
			c-5.6,0.1-11.2-1.3-16.1-4c-8.5-4.9-9.3-12.5-1.6-16.9c2.1-1.2,6-2.9,12.4-3.6s13.8-3.1,14.4-7c0.9-5.1-12-12.2-28.3-21.3
			C323.3,228.4,318.8,225.9,314.4,223.3L314.4,223.3z"/>
	</g>
</g>
<g id="freepik--Characters--inject-63">
	<g id="freepik--Character--inject-63">
		<g id="freepik--Chartacter--inject-63">
			<g id="freepik--Bottom--inject-63">
				<path class="st9" d="M333.2,250.2c2.3,0.3,4.4,1.5,6,3.2c2.1,2.7,6.9,10.9,7.9,11.8c-0.5,0.9-1.3,1.7-2.1,2.2l-2.5-2.9
					c-0.6-0.5-0.9-1.1-0.9,0.6s0.3,3.5,0.2,6c0,2,0.4,5.8-3.1,9.6c-3.2,3.6-6.7,5.3-9.1,5.6c-1.4,0.2-3.9-0.1-3.8-3
					c0.1-1.5,0.8-6.5,1-9.2S333.2,250.2,333.2,250.2z"/>
				<path class="st11" d="M333.9,250.8c-1.1-1-2.1-2.2-2.7-3.6c-0.6-1.3-3.8-8.2-7.6-17.9c-4.9-12.4-13-21.6-15.5-26.3
					c-2.8-5.1-5.2-10.4-7.1-15.9l-10,6.7l-13.3-0.2c-0.1,2,0.7,4.6,2.2,7.7l0,0v0.1c0.1,0.3,0.3,0.6,0.4,0.8c3,5.8,8,12.9,13.6,20
					l0.1,0.2l0.2,0.3c5.4,6.9,11.4,13.9,16.6,19.9v-0.1c4.2,4.8,8.1,9.9,11.5,15.2c4.7,7.7,4.4,14.5,4.4,18.6c0,2.6,2,3.1,4.7,0.8
					c3.5-2.7,5.4-6.9,5.3-11.3C337.5,256.9,336.7,254.3,333.9,250.8z"/>
				<path class="st12" d="M300.8,194l-23.1-0.4c0,0.3,0,0.5,0,0.8c0,0.1,0,0.2,0,0.3s0,0.4,0,0.6s0,0.3,0.1,0.4l0.1,0.5
					c0,0.2,0.1,0.3,0.1,0.5l0.1,0.4c0,0.1,0,0.1,0,0.1s5.8,4,16.6,5.8c0,0,0.3,17.2,3.2,24.2l0,0l0,0l3.2,3.9
					C301.7,220.9,300.8,194,300.8,194z"/>
				<path class="st9" d="M316.9,268.5c1.7,1.8,2.8,4,3.1,6.5c0.3,3.7-0.1,13.9,0.2,15.3c-0.9,0.5-2,0.8-3,0.8l-0.6-4.1
					c-0.3-0.8-0.2-1.5-1.1,0s-1.6,3.3-3,5.5c-1.1,1.8-2.8,5.5-7.8,6.9c-4.6,1.4-8.5,0.9-10.7-0.2c-1.3-0.6-3.2-2.4-1.6-4.9
					c0.9-1.3,4.2-5.4,5.9-7.8S316.9,268.5,316.9,268.5z"/>
				<path class="st11" d="M304.3,268.3c0.2-9.8-8.9-54.4-6.5-75.3l26.2-0.3c-1.4,6.1-2.3,12.3-2.7,18.5c-0.4,5.7,1.4,18.7-1.3,32.8
					c-1.4,6.6-2.4,13.2-3,19.9c0,1.5-0.2,4.7-0.1,5.5c0.4,4.8-0.3,7.6-5.6,15.2c-1,1.5-3.5,6.2-10.6,7.2c-3.5,0.5-4.9-1.2-3.5-3.5
					C299.5,284.6,304.1,278.1,304.3,268.3z"/>
				<path class="st12" d="M321.3,211.2c0,2.2,0.1,4.4,0.2,6.6s0.2,4.4,0.3,6.6c0.1,4.4,0,8.9-0.5,13.3c-0.2,2.2-0.6,4.4-1,6.6
					l-1.2,6.5c-0.4,2.2-0.8,4.3-1.1,6.5c-0.4,2.2-0.7,4.4-0.9,6.6c0.3-4.4,0.8-8.8,1.5-13.2c0.6-4.4,1.6-8.7,2-13.1
					c0.3-2.2,0.4-4.4,0.5-6.6s0.1-4.4,0.1-6.6s0-4.4-0.1-6.6S321.1,213.4,321.3,211.2z"/>
				<path class="st12" d="M297.5,204.7c-0.2-3.9,0-7.8,0.4-11.7l26.2-0.3c-0.7,2.9-1.3,5.8-1.7,8.8l0,0
					C322.3,201.5,312.3,206.6,297.5,204.7z"/>
				<path class="st8" d="M278.1,150.4c0.6-6,1.5-12,2.8-17.9c1-4.5,2-8.4,2.7-11.9c7.6,5.1,26.5,5.5,35.2-0.2
					c3.6,5,6.7,10.4,9.2,16.1c3,7.1,4.2,11.5,4.1,20.3c-0.1,8-3.7,31.7-7,41.8c-8.9,4.9-39.9,3.8-48.7-5
					C276.6,193.6,277.1,158.8,278.1,150.4z"/>
			</g>
			<g id="freepik--Top--inject-63">
				<g id="freepik--Head--inject-63">
					<path class="st13" d="M286.3,41.3c-0.2-1,0-2,0.5-3c1.1-2,3.5-2.9,5.8-3.2c1.2,0,2.5-0.2,3.6-0.7c1-0.5,1.7-1.5,2.7-2.1
						c1.2-0.7,2.5-0.9,3.8-0.7c1.6,0.2,3.1,0.9,4.2,2c0.9,0.9,2,1.5,3.1,1.9c2.9,0.8,4.9-0.2,7.6,2.1c1.6,1.6,2.4,3.8,2.2,6
						c2,1.1,4.9,8,1.3,16c-1.8,4.1-4.2,6-7,9.5l-2.9,0.1c-1.1-2.4-3.5-1.9-5.9-2.3c-1.4-0.6-2.2-2-3.6-2.6c-1.3-0.5-2.6-0.7-4-0.7
						c-1.5,0-3.1-0.4-4.4-1.2c-0.8-0.8-1.5-1.9-1.8-3c-0.3-0.7-0.8-3.1,0-3.7c-1.3,1-3.9,1.5-5.3,0.5c-0.9-0.7-1.3-1.8-1.1-2.8
						c0.1-0.2,0.1-0.4,0.1-0.6c-0.1-0.4-0.3-0.8-0.7-1c-0.4-0.2-0.8-0.4-1.2-0.6c-1-0.9-1.4-2.3-1-3.5c0.5-1.2,1.3-2.3,2.4-3
						c0.7-0.5,1.5-1,1.6-1.8C286.5,42.2,286.5,41.7,286.3,41.3z"/>
					<path class="st11" d="M297.5,78.6l1.5-0.3c1.3-0.2,1.1-1.7,1.2-3v-2c-2.4,0.3-4.7-0.3-6.6-1.8c-2.8-2.2-4.5-6.8-4.4-11.9
						c0-3.3,0.8-5,0.7-5.7c-0.5-4.5-0.2-5.3,0.8-7.6c1.7-3.8,6.4-5.3,8.6-1.5c5.6-4.8,12.4,0.9,12.4,7.8c-0.5,5.7,1.2,5.9,2.4,5.9
						c1.5-3.6,5.2-3.7,6.8-1.5c1.5,2,1.6,5.2-1,8.3s-5.5,1.3-5.6,0.7c0,0-0.1,7.7-0.1,9.2s0.2,2.4,2.1,3l0,0l2.8,0.8
						c0,0-0.1,0.2-0.4,0.5c-0.6,0.8-2.1,2.7-4.5,5.8c-6.4,2.7-12.5,5.8-18.4,9.4c-1.3-3.2-2.5-6.5-3.4-9.9
						C293.8,82.6,295.5,80.5,297.5,78.6z"/>
					<path class="st14" d="M303.4,63.5l-4.3,1.4c0.3,1.2,1.5,1.9,2.7,1.6c0,0,0.1,0,0.1,0C303.1,66,303.7,64.7,303.4,63.5z"/>
					<path class="st15" d="M303.1,64.5c-1.2,0-2.2,0.8-2.5,1.9c0.4,0.1,0.8,0.1,1.3,0c0.8-0.3,1.4-1,1.6-1.9L303.1,64.5z"/>
					<path class="st13" d="M291.2,51.6l3.3-1c-0.2-0.9-1.2-1.4-2-1.2c0,0-0.1,0-0.1,0C291.5,49.7,291,50.7,291.2,51.6z"/>
					<path class="st13" d="M307.1,52.4l-3.3-1.3c0.3-0.9,1.3-1.3,2.2-1c0,0,0,0,0,0C306.9,50.5,307.4,51.5,307.1,52.4z"/>
					<path class="st9" d="M295.2,54.9c0,0.8-0.5,1.5-1.3,1.5c-0.8,0.1-1.4-0.5-1.5-1.2c0,0,0,0,0,0c-0.1-0.8,0.5-1.5,1.3-1.5
						C294.4,53.5,295.1,54.1,295.2,54.9C295.2,54.8,295.2,54.9,295.2,54.9z"/>
					<path class="st9" d="M305.5,55.5c0,0.8-0.5,1.5-1.3,1.6c-0.8,0.1-1.5-0.5-1.5-1.2c0,0,0,0,0-0.1c0-0.8,0.5-1.5,1.3-1.6
						C304.7,54.1,305.4,54.7,305.5,55.5C305.5,55.5,305.5,55.5,305.5,55.5z"/>
					<path class="st12" d="M300.2,73.3c5.5-0.5,10.8-2,12.1-5.4c-0.1,2-1.3,3.8-3.1,4.7c-2.8,1.5-5.9,2.3-9,2.3L300.2,73.3z"/>
					<polygon class="st12" points="294.5,59.6 299.6,61.5 300.2,52 					"/>
				</g>
				<path class="st11" d="M276.4,97c-6,16.7-8.7,23.7-8.7,23.7s-19.1,17.1-22.2,19.3s-9,5.8-9,5.8c-3.6,2.5-4.8,4-5.8,6.3
					s0.5,6.4,2,8.3s2.8,3.1,4.8,3.3l0,0c1.3,0.2,2.5,0.1,3.8-0.1c0.4-0.2,0.9-0.5,1.3-0.7s1.2-0.2,1.8-0.5c0.9-0.4,1.4-1.4,2.2-2
					c0.4-0.3,0.9-0.4,1.3-0.7c0.3-0.2,0.6-0.5,0.9-0.8c0.5-0.5,0.7-1.1,0.7-1.8c-0.1-0.3-0.2-0.5-0.3-0.8l-0.5-1.1
					c0-0.7,0.1-1.4,0.5-2.1c0.6-0.8,2.7-3.4,2.7-3.4l0,0l0.2-0.1c1.2-1,2.1-2,3.1-2.8c1.6-1.3,3.3-2.5,5.1-3.5
					c9.4-5.7,15.2-10.1,18.8-12.3s4.1-4.4,6.7-8.9c4.5-7.7,9.4-19,9.4-19l0.4-25.7C284.4,78.3,280.3,86.1,276.4,97z M237.4,163.8
					L237.4,163.8z M237.6,163.8l0.4,0.1L237.6,163.8z"/>
				<path class="st5" d="M256.8,130.1l-4.4,3.6c1.9,1.1,3.5,2.6,4.8,4.5c1.1,1.8,1.9,3.8,2.2,5.9l4.9-3c0,0,0-2.6-2.5-6.3
					C260.5,132.9,258.8,131.3,256.8,130.1z"/>
				<path class="st16" d="M256.8,130.1l-4.4,3.6c1.9,1.1,3.5,2.6,4.8,4.5c1.1,1.8,1.9,3.8,2.2,5.9l4.9-3c0,0,0-2.6-2.5-6.3
					C260.5,132.9,258.8,131.3,256.8,130.1z"/>
				<path class="st9" d="M295.2,77.3c-6.2,0.8-10.8,2.1-14.5,9.3s-13.1,33.2-13.1,33.2l-12.9,11.7c2,1.1,3.7,2.7,4.9,4.6
					c1.3,2,2.2,4.3,2.5,6.7c0,0,12.5-8.1,16.7-10.7s5.4-5.3,9.6-12.9s7.5-13.8,7.5-13.8L295.2,77.3z"/>
				<g id="freepik--Chest--inject-63">
					<path class="st5" d="M298.9,78.3c0,0-2.5,5.1-0.8,8.2c8.2-0.9,15.2-4.8,18-7.3l6.9,1.1c0,0,4.5,8.7,3.1,16s-7.3,24.2-7.3,24.2
						c-7.8,11.4-34.5,5.4-35.2,0.2c0,0-0.8-6.5-1.5-11.8c0,0-3.7-3.6-3.9-8.4c-0.2-5,1.9-8.6,7-13.8c2.9-3,6.2-5.8,9.6-8.2
						L298.9,78.3z"/>
					<path class="st16" d="M298.9,78.3c0,0-2.5,5.1-0.8,8.2c8.2-0.9,15.2-4.8,18-7.3l6.9,1.1c0,0,4.5,8.7,3.1,16s-7.3,24.2-7.3,24.2
						c-7.8,11.4-34.5,5.4-35.2,0.2c0,0-0.8-6.5-1.5-11.8c0,0-3.7-3.6-3.9-8.4c-0.2-5,1.9-8.6,7-13.8c2.9-3,6.2-5.8,9.6-8.2
						L298.9,78.3z"/>
					<path class="st17" d="M313.8,107.8c-1.4,3.9-5,6.7-9.1,7c-4,0.5-7.9-1.3-10.3-4.5c0,0,1.4,7.7,10.6,6.3
						S313.8,107.8,313.8,107.8z"/>
					<path class="st7" d="M314.3,76.2c0,0-6.8,15.8-9.1,23.5s-1.1,13.7-0.2,27.6c0.7,10.6,1.8,26.7,1.8,26.7s20.2-0.3,26.4-9.3
						c-1.6-5.3-6.8-17.6-8.2-21s-0.7-6.4,1.5-14.2s5.6-12.1,5.5-17.9c-0.2-4.4-2.2-8.5-5.6-11.4L314.3,76.2z"/>
					<path class="st7" d="M300,77.5c-0.1,0.4-0.5,0.7-0.9,0.8c0,0-13.7,13.2-14.6,26.8s-1.8,43.5-1.8,43.5s-1.5-0.7-4.4-3.9
						c0.6-6.2,2.8-30.7,2.2-33.5s-7.3-9.2-1.1-18.3s15.9-15.7,15.9-15.7l5-1.1C300.2,76.7,300.2,77.1,300,77.5z"/>
					<path class="st9" d="M293.2,80.8c-0.9,0.8-1.7,1.6-2.6,2.4c-1.7,1.6-3.4,3.3-5,5c-0.8,0.9-1.6,1.7-2.4,2.6
						c-0.4,0.4-0.8,0.9-1.1,1.4c-0.4,0.5-0.8,1-1,1.6c-0.2,0.6-0.2,1.3-0.1,1.9c0.1,0.6,0.2,1.2,0.3,1.8c0.3,1.1,0.7,2.1,1.1,3.2
						c-1,1.1-1.7,2.4-2.3,3.8c-0.1,0.2-0.1,0.4-0.1,0.6c0,0.2,0,0.4,0,0.6c0,0.4,0.1,0.8,0.2,1.2c0.1,0.8,0.3,1.5,0.4,2.2
						c0.6,3,1.4,5.9,2.2,8.8c-0.6-3-1.2-6-1.7-8.9c-0.1-0.8-0.3-1.5-0.4-2.2c0-0.4-0.1-0.7-0.1-1.1c0-0.3,0-0.7,0.1-1
						c0.6-1.4,1.4-2.6,2.4-3.7l0.1-0.2l-0.1-0.2c-0.5-1.1-0.8-2.1-1.1-3.3c-0.1-0.5-0.2-1.1-0.3-1.7c0-0.5,0-1.1,0.2-1.6
						c0.2-0.5,0.5-1,0.8-1.4c0.4-0.5,0.7-0.9,1.1-1.3c0.8-0.9,1.5-1.8,2.3-2.6c1.6-1.7,3.2-3.4,4.8-5.1s3.2-3.4,4.9-5
						C295,79.3,294.1,80.1,293.2,80.8z"/>
					<path class="st9" d="M317.3,99v-5.6c0-5-0.1-9.9-0.3-14.9c-0.2,5-0.3,9.9-0.4,14.9v3.7V99v0.5c0,0.1,0,0.2,0,0.3
						c-0.1,0.2-0.2,0.5-0.4,0.7c-0.8,0.8-1.8,1.5-3,1.9c-1.1,0.5-2.3,0.9-3.4,1.2l-0.4,0.1l0.1,0.4c0.6,1.5,1.1,3,1.6,4.6
						c0.1,0.4,0.2,0.8,0.3,1.2c0.1,0.4,0.1,0.7,0,1.1v0.1l-0.1,0.1l-1,1.9c-0.7,1.5-1.5,2.9-2.2,4.4l-2.3,4.4l2.4-4.3
						c0.8-1.4,1.6-2.9,2.4-4.3l0.6-1.1l0.3-0.5l0.2-0.4l0.1-0.2c0.1-0.4,0.1-0.9,0-1.3c-0.1-0.4-0.1-0.8-0.2-1.2
						c-0.4-1.5-0.9-2.9-1.4-4.3c1.1-0.3,2.2-0.7,3.2-1.1c1.2-0.5,2.3-1.2,3.2-2.1c0.2-0.3,0.4-0.6,0.5-1c0-0.2,0.1-0.4,0.1-0.6
						L317.3,99z"/>
				</g>
				<path class="st11" d="M343.1,118c0.9,6.5,1,7.7,0.6,12c-0.3,3.3-0.6,3.8-1.9,9.8s-4.3,16.8-4.3,18.4c0.1,1.5,0.1,3,0,4.5
					c-0.2,1.8-0.6,3.6-1.3,5.2c-0.5,1.1-0.7,2.4-1.3,3.5c-0.5,0.8-1,1.5-1.6,2.1c-0.6,0.8-0.8,1.8-1.5,2.5c-1.3,1.2-2.6,1.4-3.9,2
					c-0.5,0.8-1.4,2.4-2,3.1c-1.5,1.9-1.9-1.2-1.8-2.2c0.1-1.1,0.3-2.2,0.6-3.3c0.8-2.7,1.4-5.4,1.9-8.1c0.1-0.5,0.7-2.5-0.1-2.5
					c-0.3,0-0.5,0.2-0.7,0.4c-0.5,0.6-0.9,1.4-1.4,2.1c-0.4,0.5-0.8,1-1.3,1.5c-0.4,0.4-0.8,0.8-1.3,1c-0.5,0.2-2.4,0.4-2.5-0.5
					c0-0.1,0-0.3,0.1-0.4c0.4-0.9,0.9-1.8,1.3-2.7c0.4-0.9,0.8-1.8,1.1-2.8c0.6-2.8,1.8-5.5,3.4-7.9c3.2-4.4,3.9-30.7,3.9-30.7
					l-4.3-18.1c-1.8-4.9-2.7-10-2.5-15.2c0.3-8.6,3.5-10.9,3.5-10.9c6.6,2.7,10.3,4.8,12,10.9S342.5,113.6,343.1,118z"/>
				<path class="st5" d="M328,141.7l-0.5,5.1c0,0,2.3-0.6,6.9,0.7c3.7,1.1,5,2.9,5,2.9l1.2-5C340.6,145.4,336.7,141.2,328,141.7z"/>
				<path class="st16" d="M328,141.7l-0.5,5.1c0,0,2.3-0.6,6.9,0.7c3.7,1.1,5,2.9,5,2.9l1.2-5C340.6,145.4,336.7,141.2,328,141.7z"
					/>
				<path class="st9" d="M344,122.7c-0.2-1.6-1.2-9.7-3.6-21.6c-2.3-11.3-2.8-12.6-4.8-15.2c-1.6-2.2-3.4-3.8-9.2-5.7
					c0,0-4.7,2.8-4.9,10.3c-0.1,7.1,2.9,17,2.9,17l4.1,18.3l-1,18.2c3.2-1.1,10.9,0.7,12.6,3.8c0,0,2-7.5,3.2-13.3
					C344.3,130.7,344.5,126.6,344,122.7z"/>
			</g>
		</g>
	</g>
	<g id="freepik--character--inject-63">
		<g id="freepik--Arm--inject-63">
			<path id="freepik--arm--inject-63" class="st18" d="M141.3,189.2l6.1-22.5c2.8-11.6-0.8-26.2-0.8-26.2c-5.2,0.6-9.8,3-12.3,9.6
				s-6.2,29-7.1,33.9c-0.8,4.2-1,8.5-0.5,12.8c0.4,5.4,3.2,15.2,4.3,20.6c0.5,2.5,0.8,4.9,1.1,7.4c0.5,2.6,1.2,5.1,2.1,7.6
				c0.4,1.2,1.1,2.3,2,3.1c0.6,0.6,1.4,0.6,2,1.2s0.6,1.4,1.4,1.8s1.9,0.3,2.7,0.8c0.7,0.6,1.5,1.2,2.3,1.7c0.8,0.3,1.4,0.7,2,1.3
				c0.5,0.6,0.9,1.9,1.8,1.8s1.3-1,1.3-1.9c0-1.7-0.5-3.3-1.4-4.7c-0.8-1.5-1.8-3-2.8-4.4c-1-1.3-1.7-2.8-2-4.5
				c-0.3-1.1-0.1-2.4,1.2-1.8c1.6,0.8,3.2,2.4,5.2,2.2c1.4-0.2,1.5-1.2,0.7-2.1c-1.2-1.5-2.3-3.1-3.3-4.8c-1-1.7-1.8-3.5-2.9-5.2
				c-0.6-0.9-1.2-1.7-1.9-2.5c-1.9-2.2-1.6-5.2-1.7-7.9C140.7,202.6,141.1,194.1,141.3,189.2z"/>
			<path class="st0" d="M128.1,206.6l1.2,5.5c0,0,2.1,1.3,6.4,0.7s5.7-2,5.7-2l-0.3-5.8L128.1,206.6z"/>
			<path class="st8" d="M144.9,137.6c-7.5,0.9-10.2,5.6-12.5,13.3c-2.4,7.9-4.9,25.7-5.5,29.4c-1,4.5-1.4,9.1-1.1,13.7
				c0.5,4.9,1.4,9.7,2.5,14.4c0,0,2,1.1,6.2,0.9c5.9-0.3,7-2.1,7-2.1l0.4-17.9l8.4-28.1L144.9,137.6z"/>
		</g>
		<g id="freepik--bottom--inject-63">
			<path class="st9" d="M233.6,329.7c0.6-0.3,1,1.2,0.9,2c-0.4,2.4-2.5,5.5-6.4,7.8s-12.2,4-14.7,4.7s-6.3,3.5-8.6,4.7
				c-4.2,2.3-7.6,2-9.5,1c-0.7-0.5-1.1-1.2-1.3-2c-0.5-1.8-0.5-2.2-0.3-2.2L233.6,329.7z"/>
			<path class="st7" d="M192.6,340.4c0.2,2.2,0.8,4.4,1.6,6.5c1,1,2.3,1.5,3.7,1.4c3.2,0,6-1.2,8.9-3c1.9-1.2,3.9-2.2,6.1-2.9
				c2.6-0.7,8.3-2,10.9-2.8c2.4-0.8,4.6-2,6.4-3.7c1.4-1.4,3.4-4,3.5-5.6c-0.4-3.4-1.3-5.1-3.4-5.6s-4.9,0.2-8.6,1.1
				c-1.1,0.3-2.5,0.7-3.1,0.8c-2.3,0.5-4.4,1-6.1,1.5c-1.4,0.5-2.9,0.6-4.4,0.5c-0.7-0.1-1.3-0.4-1.8-0.9c-0.6-0.7-1-1.9-1.7-1.7
				c0,0-11.8,6.5-12.8,6.9S192.1,334.8,192.6,340.4z"/>
			<path class="st1" d="M219.6,326.1c0.5,0.2,0.9,0.5,1.3,0.8c0.4,0.4,0.7,0.8,1,1.3c0.4,0.6-0.4,1-0.9,0.4
				c-0.4-0.6-0.9-1.1-1.4-1.5c-0.4-0.3-0.8-0.5-1.3-0.4l-0.6,0.1C217.6,326.3,219,325.9,219.6,326.1z"/>
			<path class="st1" d="M213.7,327.3c0.4-0.2,0.9-0.2,1.3,0c0.5,0.2,1,0.6,1.3,1.1c0.4,0.6,0.8,1.2,1.1,1.8c0.2,0.4-0.8,0.7-1,0.3
				c-0.3-0.6-0.6-1.1-1-1.6c-0.2-0.3-1.1-1.2-1.8-1.1l-0.3,0.1c-0.1-0.1,0.1-0.3,0.2-0.4L213.7,327.3z"/>
			<path class="st1" d="M210.4,328.4c0.3,0,0.6,0,0.9,0.2c0.3,0.2,0.6,0.5,0.8,0.9c0.4,0.6,0.7,1.3,0.9,2c0.2,0.5-0.8,0.7-1,0.4
				c-0.3-1-0.8-1.9-1.5-2.6c-0.3-0.3-0.7-0.5-1.1-0.6c0-0.1,0.1-0.2,0.2-0.2S210.3,328.4,210.4,328.4z"/>
			<path class="st18" d="M187.3,319c0,0,3.7,11.8,4.8,14.5c0.4,0.9,2.1,0.7,3,0.8c1.2,0.1,2.3,0.3,3.4,0.8c2.8,1.5,4.5,1.5,4.6-2.8
				c-0.1-0.8,0.5-1.4,1.3-1.5c0,0,0.1,0,0.1,0c0.8,0,1.5-0.1,2.3-0.4c0.1-0.1,0-0.3-0.1-0.4c-0.9-0.6-1.5-1.6-1.7-2.8
				c-1.1-5-1.8-9.4-3-15.6L187.3,319z"/>
			<path class="st9" d="M178.4,202.4c0,0,5.6,7.1,9.1,20.4c3.1,12.4,5.4,24.9,7,37.6c0.8,5.7,1.4,9.7,2.9,20
				c1.3,8.6,6.7,40.5,6.7,40.5s-3.9,3.6-7.3,4.9c-3.1,1.2-5.9,1.7-7.1,1.2c0,0-3.8-10.3-8.5-23.7c-2.3-6.2-4.1-12.5-5.4-19
				c-0.6-3.3-0.5-9.2-0.4-12.2l-25.3-41c-2-2.6-3.6-5.5-4.7-8.6c-3.3-8.8,0.9-21.4,0.9-21.4L178.4,202.4z"/>
			<path d="M153.5,213.9h31c1.2,2.9,2.1,5.9,2.9,8.9c2.9,11.4,5.1,22.9,6.6,34.6c-0.8,5.3-1.6,10.8-2.4,14.6c-2.1,9.9-3.4,17-5,21.1
				c-1.6,3.5-3.5,6.8-5.7,10c-2.2-6-4-12.3-5.3-18.6c-0.6-3.3-0.5-9.2-0.4-12.2L157,242.4l-1.4-9.2
				C150.9,225.2,151.4,219.1,153.5,213.9z"/>
			<path class="st18" d="M139,335.6c1.8-3,3.4-7.6,7.3-19.3l14.6,12l-9,15c-0.3,0.8-0.5,1.6-0.7,2.4
				C149.3,348.7,139,335.6,139,335.6z"/>
			<path class="st7" d="M133.6,342c0-0.2-0.1-1.6,0-1.8c0.4-1.5,1.3-1.9,2.4-2.8c1.2-0.8,2.2-1.8,3.2-2.8c0.4-0.6,0.4-0.9,1.1-1.1
				c1.6-0.5,3.3-0.3,4.6,0.6c3.3,1.8,4.3,4,4.1,6.4c-0.1,1.8-0.3,4.2,1.2,5.3c0.6,0.5,1.6-2.4,1.6-2.4c0.9,1.6-0.4,3.9-1.1,7.3
				c-0.4,1.8-0.4,3.7-0.1,5.6c0.3,2.9,0.7,2.9,2.2,3.1c1.3,0.2,4.9-0.1,7.1,1.5c1.7,1.1,2.6,3.2,2.2,5.2c-0.4,1.1-3.7,6.6-15.7,4.5
				c-3.5-0.6-10.8-6.4-10.7-6.9c0.1-0.6,0.1-1.1,0-1.7c0-1.3-0.1-2.6-0.1-3.9c0-1.2,0-2.5-0.2-3.7c-0.2-1-0.4-2-0.4-3l-0.7-7.8
				C134.2,342.9,133.6,342.7,133.6,342z"/>
			<path d="M132.1,341.5c-1.2,1.2-0.5,4.7,1.1,8.9c0.7,1.9,2,5.1,1.6,8.5s-0.4,5,0.4,6.6c1.3,2.5,8.3,5.7,12.4,6.7
				c-2.5-3.7-4-8-4.2-12.5c-0.4-7.5-1-12.4-4.2-15.7C135.1,339.8,132.1,341.5,132.1,341.5z"/>
			<path class="st9" d="M162.2,366.1c0,0-2.4,4.7-11.7,4.6c-3.7-0.1-5.6-1.9-5.7-7.8c-0.1-7-0.6-14.2-2.8-17.7s-5.6-5.2-8.3-5
				c-0.6,0.2-1.2,0.7-1.5,1.2c0,0,2.7-0.9,6.9,2.7c3.1,2.7,3.9,8.3,3.9,15.3c0,3-0.2,6.4,0.6,8.7c0.7,2,2.4,3.5,4.4,4.1
				c5.1,1.5,12-1,13.7-3.2C162.3,368.2,162.5,367.1,162.2,366.1z"/>
			<path class="st1" d="M151,358.1c0.4,0.3,0.6,0.7,0.8,1.2c0.1,1.2-0.5,2.4-1.5,3.1c-0.6,0.4-1,0.2-0.2-1
				C150.7,360.3,151,359.2,151,358.1z"/>
			<path class="st1" d="M150.5,354.4c0,0,0.3,0.2,0.4,1.2c0,0.5-0.7,2.6-1.7,3.1s-0.4-0.7,0-1.3
				C149.8,356.6,150.3,355.5,150.5,354.4z"/>
			<path class="st1" d="M150.8,350.4c0,0,0.3,0.1,0,1.5c-0.4,0.8-1.1,1.5-2,1.9c-0.6,0.1-0.9-0.3-0.2-0.9
				C149.2,352.4,150.7,351,150.8,350.4z"/>
			<path class="st9" d="M158.8,202.4c-1.5,1.6-5.1,6.9-5.7,15.1c-0.2,5.3,1.4,10.6,4.5,14.9c1.2,18.1,1.2,52.4,1.2,52.4
				c-4.1,5.9-7.1,12.4-9,19.3c-1.6,5.4-7.6,23.9-7.6,23.9c9.9-1.4,13.3,10.1,13.3,10.1s10.3-16.3,18.6-29
				c6.1-9.3,10.2-16.3,12.1-21.8c1.7-5.1,2.9-11.2,4.6-23s3.3-27.4,4.1-39s0.3-28.4,0.3-28.4L158.8,202.4z"/>
			<path d="M144.1,216.6c1.3-0.5,2.5-1.3,3.3-2.5c0.4-0.8,0.7-1.7,0.9-2.6c0.3-1.5,0.8-2.9,1.4-4.4l0.9,0.4c-0.6,1.4-1,2.8-1.3,4.2
				c-0.2,1-0.5,1.9-1,2.8c-1,1.4-2.4,2.4-4,2.9C144.2,217.3,144.2,216.9,144.1,216.6z"/>
			<path d="M166.3,227c-0.2,0-0.4,0-0.6-0.1c-1.4-0.3-2.4-1.3-4.5-4.1c-1.6-2.1-1.4-3.7-1.2-6.3c0.1-0.9,1-6,1.1-7.3l0.9,0.5
				c-0.1,1.4-1,5.9-1.1,6.9c-0.3,2.5-0.4,3.7,1,5.5c1.9,2.6,2.9,3.5,4,3.7s5.8-0.6,7.1-1.5c0.7-0.5,1.9-7.1,2.7-12.9l0.9,0.1
				c-0.4,2.9-1.6,12.5-3.1,13.6C172.3,226.2,168.2,227.1,166.3,227z"/>
		</g>
		<g id="freepik--top--inject-63">
			<polygon class="st18" points="172.5,131.5 170.8,144 153.8,143.2 155.6,129.6 			"/>
			<path class="st15" d="M179.3,108.2c1.3,1.7,5.3,6.2,6,7.3l-3.8,2.3L179.3,108.2z"/>
			<path class="st18" d="M169.8,95.6c5.2-0.6,8.6,3.2,10.2,14.3c0.1,0.4,0.7,1.1,1.2,2.8c2.1,7.2,0.9,14-0.3,15.8
				c-3,2.4-6.4,3.4-11.3,2.9c-3.7-0.3-13.3-1.5-18.1-6.5c-5.7-6-8.5-14.9-4.5-19.5C152.7,98.9,166.9,95.9,169.8,95.6z"/>
			<path class="st15" d="M180.9,128.5c-0.7,1-5.5,3.5-8.5,3.7l0.3-2.4C175.5,129.7,178.2,129.3,180.9,128.5z"/>
			<path class="st9" d="M170.8,115.2c-0.2,0.5-0.7,0.8-1.3,0.6c-0.2-0.1-0.4-0.2-0.5-0.3c-0.6-0.8-1.2-1.6-1.9-2.2
				c-0.9-0.8-2.1-1.1-3.2-1.1c-4.4,0.3-3.3,6.1-1.2,8.2c3.5,3.3,5.4,0.4,5.4,0.4s2.5,5.6-1.2,8.9c0,0-6.4,2.8-11.4,1.2
				c-3.6-2.8-6.7-6.1-9.3-9.8c-6-8.3-5.5-16.7-1.6-19c-0.2-2.9,1.4-7.3,7.4-9.9c5.7-2.4,9.6-2.2,13.7-2s9.2,2.1,13.1-1.1
				c1,2.4,0.7,5-0.6,7.2c1.3-0.6,2.8-0.1,3.5,1.2s0.1,2.8-1.2,3.5c0.9,0.5,1.3,1.5,0.9,2.4c-0.3,0.9-1.2,1.5-2.1,1.6
				c-0.9,0-1.7,0-2.6-0.2c-1.2,3.4-5,4.6-7.3,4.4c0.1,0,0.4,0.5,0.4,0.5s0.3,0.4,0.4,0.6c0.2,0.4,0.4,0.8,0.5,1.3
				c0.3,0.9,0.4,1.8,0.3,2.7C171,114.6,170.9,114.9,170.8,115.2z"/>
			<path class="st7" d="M144.9,137.6c-4.4,2.5-7.1,9.4-6.2,19.3c1.1,11.9,3,14.5,4.3,24.4c0.8,5.1,1.1,10.3,1.1,15.5
				c0,4.7-0.6,14.3-0.6,14.3s5.9,7.3,22.1,8.3c20.7,1.2,29.9-3.8,29.9-3.8s0.1-21.4-0.4-34.7c-0.7-19.8-0.8-25.6-3.9-32.3
				c-1-2-2.1-6.4-5.5-7.3c-2.7-0.7-11.8-2.8-14.2-3.1c-4,1-14.4,1.1-16.9-1.1v-0.6C150.7,136.7,144.9,137.6,144.9,137.6z"/>
			<path class="st9" d="M151.3,136.7c2.6-2.4,3-2.7,3.8-3l-0.2,1.2c0,0,0.5,1.4,5.5,1.9c8.7,0.9,11.4-1.1,11.4-1.1l0.1-0.7
				c0.8,0,1.7,0.2,2.3,0.8c1.4,1,4.6,3.9,4.6,3.9l-2.3-0.5c0,0-5.1,4.4-17.5,2.7C150.5,140.6,151.3,136.7,151.3,136.7z"/>
			<path class="st18" d="M252.6,149c-0.4,0.2-0.8,0.3-1.3,0.4c-3.5,1.1-7.3,1.2-10.9,0.4c-0.5-0.1-1-0.4-1.3-0.9
				c-0.1-0.3-0.1-0.7,0-1l0.4-2.5c0.2-1,0.3-2.1,0.2-3.1c0-0.7-0.3-1.3-0.7-1.8c-0.5-0.4-0.8-0.6-1.4-0.3c-0.4,0.4-0.6,0.9-0.7,1.5
				c-0.7,2.3-1.8,3.2-3,5.9s-2.1,4.3-6.5,8c-1.5,1.3-16.4,11.2-16.4,11.2s-1.8-2.1-10.7-13.6c-6.1-7.9-7.9-9.8-13.7-11
				c0,0-6.9,8.1-1.9,21.1c1.8,3.5,12.3,14.2,16.3,17.6c6.5,5.6,10.1,7.7,14.8,3.4c5.1-4.6,9-9.4,13.3-14.1c3.7-4,5.3-5.5,8.3-6.5
				c3.3-1.3,6.3-3.2,8.9-5.5c0.6-0.4,1.1-1,1.5-1.6c0.4-0.6,0.6-1.2,1-1.8c0.7-0.9,1.5-1.7,2.4-2.4c0.8-0.8,1.3-1.8,1.5-2.9
				C252.6,149.4,252.7,149.1,252.6,149z"/>
			<path class="st0" d="M223.9,158.1l3.9-2.9c2.1,0.6,3.9,1.9,5.1,3.7c1.2,1.8,2,3.9,2.3,6.1l-3,2.6L223.9,158.1z"/>
			<path class="st8" d="M186,141.3c5.9,1.3,8,1.9,11,5.6s14.1,19.3,14.1,19.3l14-9.3c2.1,0.8,3.9,2.1,5.3,3.8
				c1.5,1.9,2.4,4.3,2.6,6.8c0,0-9,10-14.3,15.2s-7.7,6.2-13.4,2.4s-18.1-16.3-18.1-16.3S176.4,153.7,186,141.3z"/>
			<path class="st19" d="M237.4,163.7c0.7-0.2,1.4-0.7,1.8-1.3c0.6-1.1,1.4-1.7,1.6-2.9c0.1-0.5,0.2-0.9,0.3-1.3
				c0.3-0.7,0.8-1.3,1.3-1.7c0.5-0.5,0.9-1,1.5-1.5c0.3-0.2,0.7-0.4,1.1-0.1c0.1-0.5,0.3-0.9,0.6-1.3c0.3-0.4,1.1-1.1,1.6-0.6
				c0.1,0.1,0.2,0.3,0.3,0.5c0.5,1,0.9,2,1.4,3c0.1,0.2,0.2,0.5,0.3,0.8c0,0.7-0.2,1.3-0.7,1.8c-0.2,0.3-0.5,0.6-0.9,0.8
				c-0.4,0.3-0.9,0.4-1.3,0.7c-0.8,0.6-1.3,1.6-2.2,2c-0.6,0.3-1.2,0.3-1.8,0.5s-0.9,0.5-1.3,0.7C240,163.9,238.7,163.9,237.4,163.7
				z"/>
			<path class="st11" d="M237.4,163.7c0.7-0.2,1.4-0.7,1.8-1.3c0.6-1.1,1.4-1.7,1.6-2.9c0.1-0.5,0.2-0.9,0.3-1.3
				c0.3-0.7,0.8-1.3,1.3-1.7c0.5-0.5,0.9-1,1.5-1.5c0.3-0.2,0.7-0.4,1.1-0.1c0.1-0.5,0.3-0.9,0.6-1.3c0.3-0.4,1.1-1.1,1.6-0.6
				c0.1,0.1,0.2,0.3,0.3,0.5c0.5,1,0.9,2,1.4,3c0.1,0.2,0.2,0.5,0.3,0.8c0,0.7-0.2,1.3-0.7,1.8c-0.2,0.3-0.5,0.6-0.9,0.8
				c-0.4,0.3-0.9,0.4-1.3,0.7c-0.8,0.6-1.3,1.6-2.2,2c-0.6,0.3-1.2,0.3-1.8,0.5s-0.9,0.5-1.3,0.7C240,163.9,238.7,163.9,237.4,163.7
				z"/>
		</g>
	</g>
	<g id="freepik--Thumb--inject-63">
		<path class="st11" d="M252.4,142.5c-2,1.4-3.9,1.3-6.7,1.3c-0.9,0-1.8,0-2.6,0.2c-0.3,0-0.6,0.1-0.9,0.3c-0.4,0.2-0.7,0.4-1,0.7
			c-1.4,1-3.3,1.6-4.3,3.1c-0.6,0.9-0.8,2-1.4,2.9c-0.3,0.3-0.5,0.7-0.7,1.1c-0.2,0.4-0.2,0.9,0.1,1.3c0.1,0.2,0.3,0.3,0.5,0.4
			c0.7,0.3,1.5,0.3,2.2,0.1c1.5-0.5,2.3-2,3.6-2.9c1-0.7,2-1.1,3.2-1.4c0.5-0.2,1-0.3,1.6-0.4c0.4,0,0.9,0,1.3,0.1
			C249,149.3,252.4,142.5,252.4,142.5z"/>
	</g>
</g>
<g>
	<g id="freepik--light-bulb--inject-63">
		<g id="freepik--Bulb--inject-63">
			<g id="freepik--Socket--inject-63">
				<path class="st9" d="M226.6,107.2c-1.4-0.8-1.4-2,0-2.8c1.5-0.8,3.3-0.8,4.9-0.1c1.4,0.8,1.4,2,0,2.8
					C230,107.9,228.1,107.9,226.6,107.2z"/>
				<path class="st9" d="M232.3,106.4h-0.6c-0.2-0.3-0.4-0.6-0.7-0.7c-1.3-0.6-2.8-0.6-4,0.1c-0.3,0.2-0.5,0.4-0.7,0.7h-0.6l0.7,1
					l0,0c0.2,0.2,0.4,0.4,0.6,0.6c1.3,0.6,2.8,0.6,4-0.1c0.2-0.1,0.5-0.3,0.6-0.6l0,0L232.3,106.4z"/>
				<path class="st8" d="M225.4,106.3c-2-1.1-2-3,0-4.2c2.3-1.2,4.9-1.2,7.2-0.1c2,1.1,2,3,0,4.2
					C230.4,107.4,227.7,107.4,225.4,106.3z"/>
				<path class="st7" d="M225.3,105.6c-2.1-1.2-2.1-3.1-0.1-4.3c2.3-1.2,5.1-1.3,7.5-0.1c2.1,1.2,2.1,3.1,0,4.3
					C230.4,106.8,227.6,106.8,225.3,105.6z"/>
				<path class="st8" d="M225.2,104.9c-2.1-1.2-2.2-3.2-0.1-4.4c2.4-1.2,5.3-1.3,7.7-0.1c2.1,1.2,2.2,3.2,0.1,4.4
					C230.5,106,227.6,106.1,225.2,104.9z"/>
				<path class="st7" d="M225.1,104.1c-2.2-1.2-2.2-3.3,0-4.6c2.5-1.3,5.4-1.3,7.9-0.1c2.2,1.2,2.2,3.3,0,4.6
					C230.5,105.3,227.6,105.3,225.1,104.1z"/>
				<path class="st8" d="M225,103.4c-2.2-1.3-2.3-3.3-0.1-4.7c2.5-1.3,5.5-1.3,8.1-0.1c2.2,1.3,2.3,3.3,0.1,4.7
					C230.5,104.6,227.5,104.6,225,103.4z"/>
				<path class="st7" d="M224.9,102.6c-2.3-1.3-2.3-3.4-0.1-4.8c2.6-1.3,5.6-1.4,8.3-0.1c2.3,1.3,2.3,3.4,0.1,4.8
					C230.5,103.9,227.5,103.9,224.9,102.6z"/>
			</g>
			<path class="st5" d="M235,97.1c-0.1-1.1-0.8-2-1.8-2.5c-2.7-1.4-5.9-1.3-8.6,0.1c-1,0.5-1.7,1.4-1.8,2.5c0,0.3,0,1.7,0,2.1
				c0.1,1.1,0.8,2.1,1.8,2.5c2.7,1.3,5.9,1.3,8.6-0.1c1-0.5,1.7-1.4,1.8-2.5C235.1,98.8,235.1,97.5,235,97.1z"/>
			<path class="st5" d="M228.5,55.5c-10.1,0.1-18.3,8.4-18.2,18.5c0.1,14.6,12.2,16.9,12.3,22.8c0.1,1.1,0.8,2.1,1.9,2.6
				c2.8,1.4,6.2,1.4,9-0.1c1-0.5,1.7-1.5,1.8-2.6l0,0c-0.1-5.9,11.9-8.4,11.8-23C247,63.5,238.6,55.4,228.5,55.5z"/>
			<path class="st16" d="M228.5,55.5c-10.1,0.1-18.3,8.4-18.2,18.5c0.1,14.6,12.2,16.9,12.3,22.8c0.1,1.1,0.8,2.1,1.9,2.6
				c2.8,1.4,6.2,1.4,9-0.1c1-0.5,1.7-1.5,1.8-2.6l0,0c-0.1-5.9,11.9-8.4,11.8-23C247,63.5,238.6,55.4,228.5,55.5z"/>
			<path class="st5" d="M225.2,99c-2.1-1.2-2.1-3.1-0.1-4.3c2.3-1.2,5.1-1.2,7.5-0.1c2.1,1.2,2.1,3.1,0,4.3
				C230.3,100.1,227.6,100.2,225.2,99z"/>
			<path class="st20" d="M225.2,99c-2.1-1.2-2.1-3.1-0.1-4.3c2.3-1.2,5.1-1.2,7.5-0.1c2.1,1.2,2.1,3.1,0,4.3
				C230.3,100.1,227.6,100.2,225.2,99z"/>
			<path class="st21" d="M233.6,98.2c-0.3,0.3-0.6,0.5-0.9,0.7c-2.3,1.2-5.1,1.3-7.5,0.1c-0.3-0.2-0.6-0.4-0.9-0.7
				c0.3-0.3,0.6-0.5,0.9-0.7c2.3-1.2,5.1-1.3,7.5-0.1C233,97.7,233.3,97.9,233.6,98.2z"/>
			<path class="st5" d="M233.6,98.2c-0.3,0.3-0.6,0.5-0.9,0.7c-2.3,1.2-5.1,1.3-7.5,0.1c-0.3-0.2-0.6-0.4-0.9-0.7
				c0.3-0.3,0.6-0.5,0.9-0.7c2.3-1.2,5.1-1.3,7.5-0.1C233,97.7,233.3,97.9,233.6,98.2z"/>
			<path class="st22" d="M233.6,98.2c-0.3,0.3-0.6,0.5-0.9,0.7c-2.3,1.2-5.1,1.3-7.5,0.1c-0.3-0.2-0.6-0.4-0.9-0.7
				c0.3-0.3,0.6-0.5,0.9-0.7c2.3-1.2,5.1-1.3,7.5-0.1C233,97.7,233.3,97.9,233.6,98.2z"/>
			<path class="st22" d="M243,65c-1.2-1.7-3-3.1-5.1-2.2c-0.2,0.1-0.4,0.2-0.6,0.4c-0.7,0.6-1,1.6-0.9,2.5c0.3,1.8,2,2.9,3,4.2
				c1.1,1.5,1.9,3.2,2.4,5c0.1,0.7,0.4,1.3,0.6,1.9c0.4,0.6,1.2,0.9,1.8,0.6c0.7-0.5,1.1-1.2,1.2-2C246,71.8,245.2,68,243,65z
				 M243.5,78.6c-0.7,0-1.3,0.4-1.5,1.1c-0.2,0.5-0.1,1.1,0.2,1.6c0.4,0.5,1.1,0.7,1.6,0.3c0.5-0.4,0.9-1,0.9-1.6
				C244.7,79.4,244.2,78.7,243.5,78.6L243.5,78.6z"/>
			<path class="st8" d="M231.1,98.6h-0.2c-0.1-6.5,0.3-10.6,1.1-13.7c0.2-0.8,0.5-1.6,0.9-2.3c-1.5-0.5-2.9-1.3-4.1-2.4
				c-1.2,1.1-2.6,1.9-4.1,2.5c0.4,0.7,0.7,1.5,0.9,2.3c0.9,3,1.4,7.1,1.4,13.7h-0.2c-0.1-6.5-0.5-10.6-1.4-13.6
				c-0.2-0.8-0.5-1.6-0.9-2.3c-0.2,0.1-0.4,0.1-0.6,0.1c-2.1,0.4-3.4-0.2-3.8-0.9c-0.3-0.5-0.3-1.1,0-1.6c0.3-0.5,0.9-0.7,1.4-0.6
				c0.9,0.1,2.1,0.9,3.1,2.7c1.5-0.5,2.9-1.3,4-2.4c-0.2-0.2-0.4-0.5-0.6-0.7c-0.8-1-1.1-2.3-0.6-3.6c0.4-0.7,1.3-1,2-0.6
				c0.3,0.1,0.5,0.4,0.6,0.6c0.5,1.2,0.3,2.6-0.5,3.6c-0.2,0.3-0.4,0.5-0.6,0.7c1.2,1.1,2.6,1.8,4.1,2.3c1-1.8,2.1-2.6,3-2.8
				c0.6-0.1,1.1,0.1,1.5,0.6c0.3,0.5,0.4,1.1,0.1,1.6c-0.4,0.7-1.7,1.3-3.8,1c-0.2,0-0.4-0.1-0.6-0.1c-0.4,0.7-0.7,1.5-0.9,2.3
				C231.4,88,231,92.1,231.1,98.6z M233.2,82.4l0.5,0.1c2,0.3,3.2-0.3,3.6-0.9c0.3-0.4,0.3-0.9,0-1.3c-0.3-0.4-0.8-0.6-1.3-0.5
				C235.2,80,234.1,80.7,233.2,82.4L233.2,82.4z M221.2,80c-0.4,0-0.8,0.2-1,0.5c-0.3,0.4-0.3,0.9,0,1.3c0.4,0.6,1.6,1.2,3.6,0.8
				c0.2,0,0.4-0.1,0.5-0.1c-1-1.7-2.1-2.4-2.9-2.5L221.2,80z M228.7,75.2c-0.5,0-0.9,0.3-1.1,0.7c-0.4,1.1-0.2,2.4,0.6,3.3
				c0.2,0.2,0.4,0.5,0.6,0.7c0.2-0.2,0.4-0.4,0.6-0.7c0.7-1,0.9-2.2,0.5-3.3C229.6,75.4,229.2,75.2,228.7,75.2L228.7,75.2z"/>
		</g>
		<path class="st5" d="M229,52.2c-0.4,0-0.7-0.3-0.7-0.7l0,0v-6.9c0-0.4,0.3-0.7,0.7-0.7s0.7,0.3,0.7,0.7v6.9
			C229.7,51.9,229.4,52.2,229,52.2L229,52.2z"/>
		<path class="st5" d="M240.3,55.3c-0.1,0-0.2,0-0.4-0.1c-0.3-0.2-0.5-0.6-0.3-0.9c0,0,0,0,0-0.1l3.4-6c0.2-0.3,0.6-0.4,0.9-0.3
			c0.3,0.2,0.4,0.6,0.3,0.9l0,0l-3.4,6C240.8,55.1,240.6,55.3,240.3,55.3z"/>
		<path class="st5" d="M248.5,63.6c-0.2,0-0.5-0.1-0.6-0.3c-0.2-0.3-0.1-0.8,0.3-1l5.9-3.4c0.3-0.2,0.8-0.1,0.9,0.3
			c0.2,0.3,0.1,0.8-0.3,0.9l0,0l-5.9,3.4C248.8,63.5,248.7,63.6,248.5,63.6z"/>
		<path class="st5" d="M258.4,74.9h-6.9c-0.4,0-0.7-0.3-0.7-0.7c0-0.4,0.3-0.7,0.7-0.7h6.9c0.4,0,0.7,0.3,0.7,0.7
			C259.1,74.6,258.8,74.9,258.4,74.9z"/>
		<path class="st5" d="M254.4,89.6c-0.1,0-0.2,0-0.4-0.1l-6-3.4c-0.3-0.2-0.5-0.6-0.3-0.9c0,0,0,0,0-0.1c0.2-0.3,0.6-0.4,0.9-0.3
			l6,3.4c0.3,0.2,0.5,0.6,0.3,0.9c0,0,0,0,0,0C254.9,89.4,254.7,89.6,254.4,89.6z"/>
		<path class="st5" d="M203.4,89.5c-0.2,0-0.5-0.1-0.6-0.3c-0.2-0.3-0.1-0.7,0.3-0.9l5.9-3.4c0.3-0.2,0.7-0.1,1,0.2s0.1,0.7-0.2,1
			c0,0-0.1,0-0.1,0.1l-5.9,3.4C203.7,89.5,203.5,89.5,203.4,89.5z"/>
		<path class="st5" d="M206.4,74.8h-6.9c-0.4,0-0.7-0.4-0.6-0.8c0-0.3,0.3-0.6,0.6-0.6h6.9c0.4,0,0.7,0.3,0.7,0.7
			C207.1,74.4,206.8,74.7,206.4,74.8C206.4,74.8,206.4,74.8,206.4,74.8L206.4,74.8z"/>
		<path class="st5" d="M209.4,63.5c-0.1,0-0.2,0-0.4-0.1l-6-3.4c-0.3-0.2-0.5-0.6-0.3-0.9c0,0,0,0,0-0.1c0.2-0.3,0.6-0.4,0.9-0.3
			l6,3.4c0.3,0.2,0.4,0.6,0.3,0.9C209.9,63.3,209.7,63.4,209.4,63.5L209.4,63.5z"/>
		<path class="st5" d="M217.7,55.2c-0.2,0-0.5-0.1-0.6-0.3l-3.4-5.9c-0.2-0.3-0.1-0.8,0.3-1c0.3-0.2,0.8-0.1,0.9,0.3l3.4,6
			c0.2,0.3,0.1,0.7-0.3,0.9C217.9,55.3,217.8,55.3,217.7,55.2z"/>
	</g>
</g>
<g id="freepik--speech-bubbles--inject-63">
	<g>
		<g id="freepik--speech-bubble--inject-63">
			<path class="st23" d="M102.6,77.8c6.3,3.6,11,9.5,13.1,16.5l0.8,3.2c2.8,15.6-7.5,30.5-23,33.3c-13.8,2.5-27.4-5.3-32.1-18.5
				l-0.9-3.1c-3.6-15.4,6-30.8,21.4-34.4C88.8,73,96.3,74.1,102.6,77.8z"/>
			<path class="st8" d="M61.3,87.1c-8.6,14.9-3.5,33.9,11.4,42.5c13.2,7.6,29.9,4.5,39.6-7.2l9.6,1.5c1,0.2,1.9-0.5,2.1-1.5
				c0.1-0.5-0.1-1-0.4-1.4l-6.1-7.5c6-16.1-2.2-34-18.3-40C84.8,68.1,68.8,73.9,61.3,87.1z M102.5,77.8c6.3,3.6,11,9.5,13.1,16.5
				l0.8,3.2c2.9,15.6-7.4,30.5-23,33.4c-13.8,2.5-27.4-5.3-32.1-18.5l-0.9-3.2c-3.6-15.4,5.9-30.8,21.3-34.5
				C88.8,73,96.2,74.1,102.5,77.8z"/>
		</g>
		<g id="freepik--Check--inject-63">
			<path class="st5" d="M83.9,119.1c-1.2,0-2.4-0.5-3.3-1.4l-10.2-10.9c-1.7-1.8-1.6-4.7,0.2-6.4s4.7-1.6,6.4,0.2l6.6,7.1l15.6-19.8
				c1.6-1.9,4.5-2.1,6.3-0.5c1.8,1.5,2.1,4.2,0.7,6.1l-18.9,24c-0.8,1-2,1.7-3.3,1.7L83.9,119.1z"/>
		</g>
	</g>
	<g>
		<g>
			<path class="st23" d="M392.6,55.9c-6.8-2.6-14.3-2.5-21.1,0.2l-3,1.4C354.6,65,349.5,82.4,357,96.3c6.7,12.4,21.4,18.1,34.7,13.4
				l3-1.3c14.3-6.9,20.2-24,13.4-38.3C404.9,63.6,399.4,58.5,392.6,55.9L392.6,55.9z"/>
			<path class="st8" d="M393.5,53.6c-14.2-5.5-30.2,0.1-38,13.1h-9.7c-1,0-1.8,0.8-1.8,1.8c0,0.5,0.2,1,0.6,1.3l7.1,6.5
				c-3.4,16.8,7.4,33.3,24.2,36.7s33.3-7.4,36.7-24.2C415.8,74,407.7,59.1,393.5,53.6L393.5,53.6z M409.1,93
				c-2.6,6.8-7.7,12.3-14.3,15.5l-3,1.3c-14.9,5.2-31.3-2.7-36.5-17.6c-4.6-13.3,1.1-27.9,13.4-34.6l3-1.4
				c14.7-5.9,31.4,1.3,37.3,16C411.6,78.8,411.7,86.2,409.1,93z"/>
		</g>
		<g id="freepik--check--inject-63">
			<path class="st5" d="M378,99.1c-1.2,0-2.4-0.5-3.3-1.4l-10.2-10.9c-1.6-1.9-1.4-4.7,0.5-6.3c1.8-1.5,4.4-1.4,6.1,0.2l6.6,7
				l15.6-19.9c1.5-2,4.4-2.3,6.3-0.8s2.3,4.4,0.8,6.3l-18.9,24c-0.8,1-2,1.7-3.3,1.7L378,99.1z"/>
		</g>
	</g>
</g>
</svg>
